<svg width="18" height="18" viewBox="0 0 18 18" fill="none" xmlns="http://www.w3.org/2000/svg">
<path d="M8.99992 0C4.02939 0 0 4.02939 0 8.99992C0 13.9704 4.02939 18 8.99992 18C13.9704 18 18 13.9704 18 8.99992C18 4.02939 13.9704 0 8.99992 0V0ZM8.99992 15.3C5.52061 15.3 2.69999 12.4794 2.69999 8.99992C2.69999 5.52061 5.52061 2.69999 8.99992 2.69999C12.4794 2.69999 15.3 5.52061 15.3 8.99992C15.3 12.4794 12.4794 15.3 8.99992 15.3Z" fill="#EB5757"/>
<path d="M4.04998 16.2C3.86804 16.2 3.70391 16.0904 3.63436 15.9222C3.56466 15.7541 3.60322 15.5606 3.73176 15.4319L4.63186 14.5318C4.80753 14.356 5.09246 14.356 5.2683 14.5316C5.44413 14.7075 5.44397 14.9926 5.26813 15.1682L4.36819 16.0682C4.28382 16.1527 4.16929 16.2002 4.04998 16.2Z" fill="#CB0025"/>
<path d="M14.85 5.39996C14.668 5.39996 14.5039 5.29038 14.4344 5.12212C14.3646 4.95403 14.4032 4.76056 14.5317 4.63186L15.4319 3.73175C15.6075 3.55592 15.8925 3.55592 16.0683 3.73159C16.2441 3.90742 16.244 4.19252 16.0681 4.36819L15.1682 5.26813C15.0838 5.35267 14.9693 5.40013 14.85 5.39996Z" fill="#CB0025"/>
<path d="M1.80005 14.47L14.3999 1.87012L16.2 3.67L3.59993 16.27L1.80005 14.47Z" fill="#EB5757"/>
</svg>
