<svg width="20" height="20" viewBox="0 0 20 20" fill="none" xmlns="http://www.w3.org/2000/svg">
<path fill-rule="evenodd" clip-rule="evenodd" d="M16.1537 9.4572H5.04121L7.47851 6.74978C7.67341 6.53275 7.66623 6.18876 7.46004 5.98258C7.25591 5.77749 6.93278 5.784 6.7348 6.00103L3.47276 9.6254C3.45019 9.64927 3.44096 9.67965 3.42455 9.7057C3.40506 9.73608 3.38352 9.7643 3.37121 9.79576C3.35787 9.8294 3.35479 9.86413 3.34966 9.89885C3.34351 9.93249 3.33325 9.96505 3.33325 9.99977C3.33325 10.0345 3.34351 10.067 3.34966 10.1007C3.35479 10.1354 3.35787 10.1701 3.37121 10.2027C3.38352 10.2352 3.40506 10.2635 3.42455 10.2938C3.44096 10.3199 3.45019 10.3503 3.47276 10.3741L6.7348 13.9985C6.83635 14.1103 6.97176 14.1667 7.10717 14.1667C7.23436 14.1667 7.36156 14.1168 7.46004 14.017C7.66623 13.8108 7.67341 13.4668 7.47851 13.2498L5.04121 10.5423H16.1537C16.4368 10.5423 16.6666 10.2993 16.6666 9.99977C16.6666 9.70027 16.4368 9.4572 16.1537 9.4572Z" fill="#002692"/>
</svg>
