<svg width="20" height="21" viewBox="0 0 20 21" fill="none" xmlns="http://www.w3.org/2000/svg">
<path d="M9.99692 20.0012C7.34485 20.0036 4.8007 18.9508 2.9254 17.0749C1.05009 15.199 -0.00238199 12.6541 4.04814e-06 10.0012V9.80117C0.0817669 5.79339 2.54702 2.22132 6.26443 0.724227C9.98185 -0.772868 14.2337 0.0940599 17.0687 2.92717C19.9303 5.78725 20.7868 10.0905 19.2384 13.8288C17.6901 17.5671 14.0421 20.0035 9.99692 20.0012ZM9.99693 11.4112L12.5861 14.0012L13.9957 12.5912L11.4065 10.0012L13.9957 7.41117L12.5861 6.00117L9.99693 8.59117L7.40772 6.00117L5.99816 7.41117L8.58736 10.0012L5.99816 12.5912L7.40772 14.0012L9.99693 11.4122V11.4112Z" fill="#EB5757"/>
</svg>
