<svg width="96" height="96" viewBox="0 0 96 96" fill="none" xmlns="http://www.w3.org/2000/svg">
<rect x="0.5" y="0.5" width="95" height="95" rx="4.5" fill="white" stroke="#B3B6BA" stroke-dasharray="2 2"/>
<path d="M61.7369 38.625H56.0922L55.3645 34.9868C55.1826 34.077 54.3771 33.4167 53.4493 33.4167H42.5505C41.6228 33.4167 40.8172 34.077 40.6353 34.9868L39.9077 38.625H34.2629C32.6475 38.625 31.3333 39.9393 31.3333 41.5547V58.4818C31.3333 60.0972 32.6475 61.4115 34.2629 61.4115H61.7369C63.3523 61.4115 64.6666 60.0972 64.6666 58.4818V41.5547C64.6666 39.9393 63.3523 38.625 61.7369 38.625ZM42.5505 35.3698H53.4493L54.1004 38.625H41.8995L42.5505 35.3698ZM62.7135 58.4818C62.7135 59.0203 62.2754 59.4584 61.7369 59.4584H34.2629C33.7245 59.4584 33.2864 59.0203 33.2864 58.4818V41.5547C33.2864 41.0162 33.7245 40.5781 34.2629 40.5781H61.7369C62.2754 40.5781 62.7135 41.0162 62.7135 41.5547V58.4818Z" fill="#353D46"/>
<path d="M48 42.7917C44.0152 42.7917 40.7734 46.0335 40.7734 50.0182C40.7734 54.003 44.0152 57.2448 48 57.2448C51.9848 57.2448 55.2266 54.003 55.2266 50.0182C55.2266 46.0335 51.9848 42.7917 48 42.7917ZM48 55.2917C45.0922 55.2917 42.7266 52.926 42.7266 50.0182C42.7266 47.1105 45.0922 44.7448 48 44.7448C50.9078 44.7448 53.2734 47.1105 53.2734 50.0182C53.2734 52.926 50.9078 55.2917 48 55.2917Z" fill="#353D46"/>
<path d="M39.6665 42.7917H36.5415C36.0022 42.7917 35.5649 43.2289 35.5649 43.7682C35.5649 44.3076 36.0022 44.7448 36.5415 44.7448H39.6665C40.2058 44.7448 40.6431 44.3076 40.6431 43.7682C40.6431 43.2289 40.2058 42.7917 39.6665 42.7917Z" fill="#353D46"/>
</svg>
