<svg width="96" height="96" viewBox="0 0 96 96" fill="none" xmlns="http://www.w3.org/2000/svg">
<rect x="0.5" y="0.5" width="95" height="95" rx="4.5" fill="white" stroke="#B3B6BA" stroke-dasharray="2 2"/>
<path d="M61.7371 38.625H56.0924L55.3647 34.9868C55.1828 34.077 54.3774 33.4167 53.4496 33.4167H42.5507C41.623 33.4167 40.8175 34.077 40.6356 34.9868L39.9079 38.625H34.2632C32.6478 38.625 31.3335 39.9393 31.3335 41.5547V58.4818C31.3335 60.0972 32.6478 61.4115 34.2632 61.4115H61.7371C63.3526 61.4115 64.6668 60.0972 64.6668 58.4818V41.5547C64.6668 39.9393 63.3526 38.625 61.7371 38.625ZM42.5507 35.3698H53.4496L54.1006 38.625H41.8997L42.5507 35.3698ZM62.7137 58.4818C62.7137 59.0203 62.2756 59.4584 61.7371 59.4584H34.2632C33.7247 59.4584 33.2866 59.0203 33.2866 58.4818V41.5547C33.2866 41.0162 33.7247 40.5781 34.2632 40.5781H61.7371C62.2756 40.5781 62.7137 41.0162 62.7137 41.5547V58.4818Z" fill="#353D46"/>
<path d="M48 42.7917C44.0152 42.7917 40.7734 46.0335 40.7734 50.0182C40.7734 54.003 44.0152 57.2448 48 57.2448C51.9848 57.2448 55.2266 54.003 55.2266 50.0182C55.2266 46.0335 51.9848 42.7917 48 42.7917ZM48 55.2917C45.0922 55.2917 42.7266 52.926 42.7266 50.0182C42.7266 47.1105 45.0922 44.7448 48 44.7448C50.9078 44.7448 53.2734 47.1105 53.2734 50.0182C53.2734 52.926 50.9078 55.2917 48 55.2917Z" fill="#353D46"/>
<path d="M39.667 42.7917H36.542C36.0027 42.7917 35.5654 43.2289 35.5654 43.7682C35.5654 44.3076 36.0027 44.7448 36.542 44.7448H39.667C40.2063 44.7448 40.6436 44.3076 40.6436 43.7682C40.6436 43.2289 40.2063 42.7917 39.667 42.7917Z" fill="#353D46"/>
<path fill-rule="evenodd" clip-rule="evenodd" d="M70.3252 64.5288H57.6743V62.4984C57.6743 59.3528 60.5071 56.8036 63.9998 56.8036C67.4925 56.8036 70.3252 59.3528 70.3252 62.4984V64.5288Z" fill="#6582FE"/>
<path fill-rule="evenodd" clip-rule="evenodd" d="M68.2167 52.6417C68.2167 54.9289 66.3285 56.7833 63.9997 56.7833C61.6709 56.7833 59.7827 54.9289 59.7827 52.6417C59.7827 50.3544 61.6709 48.5 63.9997 48.5C66.3285 48.5 68.2167 50.3544 68.2167 52.6417Z" fill="white"/>
<path fill-rule="evenodd" clip-rule="evenodd" d="M70.3252 64.5288H57.6743V62.4984C57.6743 59.3528 60.5071 56.8036 63.9998 56.8036C67.4925 56.8036 70.3252 59.3528 70.3252 62.4984V64.5288Z" stroke="#333D47" stroke-width="1.5" stroke-linecap="round" stroke-linejoin="round"/>
<path fill-rule="evenodd" clip-rule="evenodd" d="M68.2167 52.6417C68.2167 54.9289 66.3285 56.7833 63.9997 56.7833C61.6709 56.7833 59.7827 54.9289 59.7827 52.6417C59.7827 50.3544 61.6709 48.5 63.9997 48.5C66.3285 48.5 68.2167 50.3544 68.2167 52.6417Z" stroke="#333D47" stroke-width="1.5" stroke-linecap="round" stroke-linejoin="round"/>
</svg>
