<svg width="13" height="13" viewBox="0 0 13 13" fill="none" xmlns="http://www.w3.org/2000/svg">
<circle cx="6.5" cy="6.5" r="6.5" fill="#002692"/>
<path d="M6.55176 4.86207C7.06596 4.86207 7.4828 4.44523 7.4828 3.93103C7.4828 3.41684 7.06596 3 6.55176 3C6.03757 3 5.62073 3.41684 5.62073 3.93103C5.62073 4.44523 6.03757 4.86207 6.55176 4.86207Z" fill="white"/>
<path d="M7.42284 9.49006V6.33037C7.42284 6.18699 7.30119 6.07072 7.15112 6.07072C7.14231 6.07072 5.27567 6.06897 5.26683 6.06897C5.11948 6.06897 5 6.18314 5 6.32395C5 6.46476 5.11948 6.57893 5.26683 6.57893H5.60837V9.49004C5.46102 9.49004 5.34154 9.60421 5.34154 9.74502C5.34154 9.88583 5.46102 10 5.60837 10H7.42282C7.57018 10 7.68965 9.88583 7.68965 9.74502C7.68967 9.60421 7.57022 9.49006 7.42284 9.49006Z" fill="white"/>
</svg>
