<svg width="18" height="18" viewBox="0 0 18 18" fill="none" xmlns="http://www.w3.org/2000/svg">
<g clip-path="url(#clip0)">
<path d="M9.29543 2.54544C7.92512 2.54544 6.61589 2.96976 5.50934 3.77249C5.38257 3.86444 5.34812 4.03853 5.4303 4.1719L6.46952 5.8579C6.51325 5.92876 6.58452 5.9783 6.66625 5.99444C6.74789 6.01053 6.83266 5.99199 6.90012 5.94312C7.54693 5.4739 8.31234 5.22585 9.11366 5.22585C11.1947 5.22585 12.8878 6.91889 12.8878 8.99994C12.8878 11.081 11.1947 12.774 9.11366 12.774C8.31234 12.774 7.54693 12.526 6.90012 12.0568C6.83266 12.0078 6.74789 11.9892 6.66625 12.0054C6.58452 12.0216 6.51325 12.0711 6.46952 12.142L5.4303 13.828C5.34812 13.9614 5.38257 14.1354 5.50934 14.2274C6.61589 15.0302 7.92512 15.4545 9.29543 15.4545C12.8545 15.4545 15.75 12.559 15.75 8.99999C15.75 5.44094 12.8545 2.54544 9.29543 2.54544Z" fill="#353D46"/>
<path d="M6.35914 11.4208C6.41128 11.3235 6.40555 11.2054 6.34432 11.1135L5.64146 10.0592H9.89446C10.4785 10.0592 10.9536 9.58409 10.9536 9.00004C10.9536 8.41599 10.4785 7.94086 9.89446 7.94086H5.64146L6.34432 6.88654C6.4056 6.79472 6.41128 6.67663 6.35914 6.57926C6.30705 6.48195 6.20564 6.42117 6.09523 6.42117H4.06905C3.96901 6.42117 3.87551 6.47117 3.82001 6.55449L2.30028 8.83399C2.23324 8.93454 2.23324 9.06549 2.30028 9.16609L3.81996 11.4456C3.87546 11.5289 3.96896 11.5789 4.06901 11.5789H6.09523C6.20569 11.5789 6.3071 11.5181 6.35914 11.4208Z" fill="#496AFF"/>
</g>
<defs>
<clipPath id="clip0">
<rect width="13.5" height="13.5" fill="white" transform="translate(2.25 2.25)"/>
</clipPath>
</defs>
</svg>
