<svg width="64" height="80" viewBox="0 0 64 80" fill="none" xmlns="http://www.w3.org/2000/svg">
<path d="M56.8714 47.1758L58.984 72.0087C59.153 74.0301 57.9368 75.8035 56.2679 75.9474L9.83492 79.9903C8.17509 80.1373 6.67521 78.5998 6.51526 76.5814L4.40275 51.7455C4.36083 51.2792 4.39653 50.8092 4.50838 50.355C4.84034 48.9675 5.84831 47.9047 7.10978 47.8098L53.5427 43.7639C54.8012 43.6536 55.957 44.5143 56.5334 45.819C56.7192 46.2492 56.8334 46.7077 56.8714 47.1758Z" fill="#002692"/>
<path opacity="0.1" d="M56.8714 47.1758L58.984 72.0087C59.153 74.0301 57.9368 75.8035 56.2679 75.9474L9.83492 79.9903C8.17509 80.1373 6.67521 78.5998 6.51526 76.5814L4.40275 51.7455C4.36083 51.2792 4.39653 50.8092 4.50838 50.355C4.84034 48.9675 5.84831 47.9047 7.10978 47.8098L53.5427 43.7639C54.8012 43.6536 55.957 44.5143 56.5334 45.819C56.7192 46.2492 56.8334 46.7077 56.8714 47.1758Z" fill="#001471"/>
<path d="M62.3843 61.8147L62.0547 61.8551L62.1879 62.9741L62.5175 62.9337L62.3843 61.8147Z" fill="#002692"/>
<path d="M61.7417 56.4123L61.4121 56.4528L61.9085 60.6215L62.238 60.5811L61.7417 56.4123Z" fill="#002692"/>
<path d="M58.9511 42.7348L61.9871 68.2048C62.2316 70.2752 61.0425 72.1435 59.3404 72.3518L11.7215 78.1986C10.0194 78.4069 8.42292 76.8816 8.17546 74.8081L5.13948 49.3412C5.08172 48.8623 5.10211 48.377 5.19984 47.9048C5.50163 46.4683 6.49149 45.3504 7.78615 45.1911L55.4051 39.3474C56.6998 39.1881 57.9311 40.0304 58.5558 41.3535C58.7616 41.7887 58.8952 42.2554 58.9511 42.7348Z" fill="#2649E5"/>
<path opacity="0.1" d="M58.5559 41.3535L36.957 56.113C35.8999 56.8463 34.6845 57.3106 33.4133 57.4668C32.1422 57.623 30.8527 57.4664 29.6537 57.0104L5.20898 47.9048C5.51077 46.4683 6.50064 45.3504 7.7953 45.1911L55.4143 39.3474C56.6999 39.1881 57.9312 40.0304 58.5559 41.3535Z" fill="#020D18"/>
<path d="M50.4984 46.8573L44.2937 51.0961L42.2627 52.4866L36.9573 56.113C35.9275 56.83 34.7458 57.2907 33.5079 57.4578C32.27 57.6249 31.0107 57.4936 29.8321 57.0747L29.6419 57.0103L26.6663 55.9016L19.9666 53.4055L16.8341 52.2386L13.2851 50.9154L13.0286 44.5479L12.4521 30.398L39.7126 29.2739L50.1031 37.2647L50.2117 39.9814L50.4984 46.8573Z" fill="#002692"/>
<path opacity="0.7" d="M50.4984 46.8573L44.2937 51.0961L42.2627 52.4866L36.9573 56.113C35.9275 56.83 34.7458 57.2907 33.5079 57.4578C32.27 57.6249 31.0107 57.4936 29.8321 57.0747L29.6419 57.0103L26.6663 55.9016L19.9666 53.4055L16.8341 52.2386L13.2851 50.9154L13.0286 44.5479L12.4521 30.398L39.7126 29.2739L50.1031 37.2647L50.2117 39.9814L50.4984 46.8573Z" fill="#FAFAFA"/>
<g opacity="0.9">
<path opacity="0.9" d="M46.6557 40.0794L16.477 41.3228C16.3087 41.3296 16.1444 41.2693 16.0192 41.1549C15.8941 41.0405 15.8179 40.8809 15.807 40.7103C15.8012 40.54 15.8609 40.374 15.9736 40.2477C16.0863 40.1213 16.243 40.0445 16.4106 40.0334L46.5893 38.7899C46.7576 38.7832 46.9219 38.8435 47.0471 38.9579C47.1722 39.0723 47.2484 39.2319 47.2593 39.4025C47.2659 39.573 47.2064 39.7394 47.0936 39.8659C46.9807 39.9925 46.8235 40.0691 46.6557 40.0794Z" fill="white"/>
<path opacity="0.9" d="M46.8159 44.1498L16.6372 45.3933C16.4688 45.4001 16.3046 45.3398 16.1794 45.2253C16.0542 45.1109 15.9781 44.9514 15.9672 44.7808C15.9613 44.6101 16.021 44.4438 16.1336 44.317C16.2462 44.1901 16.4029 44.1126 16.5708 44.1008L46.7495 42.8573C46.9176 42.8514 47.0815 42.9119 47.2064 43.0262C47.3314 43.1405 47.4078 43.2996 47.4194 43.4699C47.4246 43.6403 47.3646 43.8062 47.2522 43.9329C47.1397 44.0595 46.9834 44.1373 46.8159 44.1498Z" fill="white"/>
<path opacity="0.9" d="M46.9791 48.2172L16.8003 49.4607C16.632 49.4674 16.4677 49.4071 16.3426 49.2927C16.2174 49.1783 16.1413 49.0187 16.1304 48.8481C16.1238 48.6776 16.1832 48.5112 16.2961 48.3847C16.4089 48.2581 16.5661 48.1815 16.734 48.1712L46.9127 46.9278C47.0807 46.921 47.2446 46.9814 47.3693 47.0959C47.494 47.2104 47.5695 47.37 47.5796 47.5403C47.5863 47.7103 47.5272 47.8763 47.415 48.0027C47.3028 48.1292 47.1464 48.2061 46.9791 48.2172Z" fill="white"/>
<path opacity="0.9" d="M44.2926 51.0961L42.2616 52.4866L19.9656 53.4054L16.833 52.2385C16.8591 52.2353 16.8854 52.2353 16.9115 52.2385L44.2926 51.0961Z" fill="white"/>
<path opacity="0.9" d="M36.0331 56.165V56.1895C36.0335 56.3562 35.9713 56.5167 35.8591 56.6385C35.747 56.7602 35.5934 56.8341 35.4296 56.845L29.8435 57.0747L29.6533 57.0104L26.6777 55.9016L35.3783 55.5402C35.546 55.5377 35.7081 55.6014 35.8304 55.718C35.9526 55.8347 36.0253 55.995 36.0331 56.165Z" fill="white"/>
</g>
<path opacity="0.1" d="M50.1151 37.2647L42.8964 36.9492L39.7246 29.2739L50.1151 37.2647Z" fill="#263238"/>
<path d="M50.1151 37.2647L43.1107 36.0488L39.7246 29.2739L50.1151 37.2647Z" fill="#002692"/>
<path d="M63.9999 7.56197C63.9999 13.7916 57.273 19.9141 56.2651 19.9141C55.2571 19.9141 48.5303 13.7886 48.5303 7.56197C48.5303 3.38742 51.9918 0 56.2651 0C60.5384 0 63.9999 3.38742 63.9999 7.56197Z" fill="#2649E5"/>
<path opacity="0.1" d="M54.8285 6.0091C53.4282 7.56804 51.527 8.12547 50.5824 7.2342C49.6378 6.34294 50.006 4.38889 51.4033 2.82995C52.8005 1.271 54.7048 0.713572 55.6524 1.58646C56.6 2.45935 56.2288 4.45015 54.8285 6.0091Z" fill="white"/>
<path opacity="0.1" d="M50.7035 12.2847C50.5194 11.8192 50.5677 11.3659 50.8122 11.2617C51.0566 11.1576 51.4158 11.4578 51.5878 11.9233C51.7598 12.3888 51.7236 12.8421 51.4791 12.9432C51.2347 13.0443 50.8876 12.7472 50.7035 12.2847Z" fill="white"/>
<path d="M55.9328 39.5158C55.9002 39.5151 55.8692 39.5016 55.8461 39.4782C55.8231 39.4548 55.8098 39.4233 55.8091 39.3903C55.8001 38.9772 55.9229 38.5722 56.1591 38.2356C56.3617 37.9341 56.47 37.5776 56.47 37.2127C56.47 36.8477 56.3617 36.4912 56.1591 36.1897C55.9312 35.8491 55.8093 35.4468 55.8093 35.035C55.8093 34.6233 55.9312 34.221 56.1591 33.8804C56.3618 33.5794 56.4702 33.2234 56.4702 32.8589C56.4702 32.4944 56.3618 32.1384 56.1591 31.8375C55.931 31.4975 55.809 31.0957 55.809 30.6844C55.809 30.273 55.931 29.8712 56.1591 29.5312C56.3618 29.2303 56.4702 28.8743 56.4702 28.5098C56.4702 28.1453 56.3618 27.7893 56.1591 27.4884C55.931 27.1484 55.809 26.7466 55.809 26.3352C55.809 25.9239 55.931 25.5221 56.1591 25.1821C56.3618 24.8812 56.4702 24.5252 56.4702 24.1607C56.4702 23.7962 56.3618 23.4402 56.1591 23.1392C55.931 22.7992 55.809 22.3974 55.809 21.9861C55.809 21.5748 55.931 21.173 56.1591 20.833C56.3657 20.5351 56.4716 20.1772 56.4609 19.8131C56.4656 19.7827 56.4807 19.7551 56.5037 19.7352C56.5267 19.7152 56.5559 19.7042 56.5861 19.7042C56.6164 19.7042 56.6456 19.7152 56.6686 19.7352C56.6916 19.7551 56.7067 19.7827 56.7114 19.8131C56.7199 20.2252 56.5971 20.6291 56.3613 20.9647C56.1553 21.264 56.0495 21.6226 56.0595 21.9876C56.0488 22.3518 56.1547 22.7096 56.3613 23.0075C56.5894 23.3475 56.7114 23.7493 56.7114 24.1607C56.7114 24.572 56.5894 24.9738 56.3613 25.3138C56.157 25.6141 56.0476 25.9703 56.0476 26.3352C56.0476 26.7001 56.157 27.0564 56.3613 27.3567C56.5894 27.6967 56.7114 28.0985 56.7114 28.5098C56.7114 28.9211 56.5894 29.3229 56.3613 29.6629C56.157 29.9632 56.0476 30.3195 56.0476 30.6844C56.0476 31.0493 56.157 31.4055 56.3613 31.7058C56.5894 32.0458 56.7114 32.4476 56.7114 32.8589C56.7114 33.2702 56.5894 33.6721 56.3613 34.0121C56.1568 34.3128 56.0472 34.6696 56.0472 35.035C56.0472 35.4005 56.1568 35.7572 56.3613 36.058C56.5893 36.3986 56.7112 36.8009 56.7112 37.2127C56.7112 37.6244 56.5893 38.0267 56.3613 38.3673C56.1543 38.6662 56.0484 39.0251 56.0595 39.3903C56.0595 39.407 56.0562 39.4236 56.0498 39.4391C56.0434 39.4545 56.034 39.4685 56.0222 39.4802C56.0104 39.4919 55.9964 39.5011 55.9811 39.5072C55.9657 39.5133 55.9493 39.5163 55.9328 39.5158Z" fill="#263238"/>
<path d="M56.2648 19.6201C56.0264 19.6201 54.4541 21.0596 54.4541 22.5236H58.0816C58.0816 21.0596 56.5123 19.6201 56.2648 19.6201Z" fill="#002692"/>
<path d="M56.6216 19.6691H55.9093C55.851 19.6691 55.8037 19.7171 55.8037 19.7763V19.8528C55.8037 19.912 55.851 19.96 55.9093 19.96H56.6216C56.6799 19.96 56.7272 19.912 56.7272 19.8528V19.7763C56.7272 19.7171 56.6799 19.6691 56.6216 19.6691Z" fill="#263238"/>
<path d="M15.4696 13.3843C15.4696 19.6109 8.74277 25.7333 7.7348 25.7333C6.72683 25.7333 0 19.6078 0 13.3843C0 9.20664 3.46149 5.81921 7.7348 5.81921C12.0081 5.81921 15.4696 9.20664 15.4696 13.3843Z" fill="#263238"/>
<path opacity="0.1" d="M6.48103 12.0836C7.88063 10.5242 8.24909 8.55186 7.30401 7.67819C6.35894 6.80452 4.4582 7.36041 3.05861 8.91978C1.65901 10.4792 1.29055 12.4515 2.23563 13.3252C3.1807 14.1989 5.08144 13.643 6.48103 12.0836Z" fill="white"/>
<path opacity="0.1" d="M2.35393 18.3582C2.16984 17.8927 2.21812 17.4394 2.46257 17.3352C2.70702 17.2311 3.06615 17.5313 3.23817 17.9968C3.41018 18.4623 3.37397 18.9156 3.12952 19.0198C2.88507 19.1239 2.53802 18.8237 2.35393 18.3582Z" fill="white"/>
<path d="M7.39079 45.3351C7.35797 45.3351 7.3265 45.3218 7.3033 45.2983C7.28009 45.2747 7.26706 45.2428 7.26706 45.2095C7.2581 44.7964 7.38088 44.3914 7.61713 44.0548C7.81966 43.7533 7.92799 43.3968 7.92799 43.0319C7.92799 42.6669 7.81966 42.3104 7.61713 42.0089C7.38917 41.6683 7.26729 41.266 7.26729 40.8542C7.26729 40.4425 7.38917 40.0402 7.61713 39.6996C7.82375 39.4017 7.92963 39.0438 7.91892 38.6797C7.92899 38.3147 7.82319 37.956 7.61713 37.6567C7.38904 37.3167 7.26705 36.9149 7.26705 36.5036C7.26705 36.0923 7.38904 35.6905 7.61713 35.3504C7.82375 35.0525 7.92963 34.6947 7.91892 34.3305C7.92899 33.9655 7.82319 33.6069 7.61713 33.3076C7.38904 32.9676 7.26705 32.5658 7.26705 32.1545C7.26705 31.7431 7.38904 31.3413 7.61713 31.0013C7.81954 30.7009 7.92784 30.3454 7.92784 29.9814C7.92784 29.6175 7.81954 29.262 7.61713 28.9615C7.38904 28.6215 7.26705 28.2197 7.26705 27.8084C7.26705 27.3971 7.38904 26.9953 7.61713 26.6553C7.82319 26.3559 7.92899 25.9973 7.91892 25.6323C7.91968 25.5992 7.93297 25.5677 7.95601 25.5444C7.97905 25.521 8.01007 25.5075 8.04265 25.5067C8.07547 25.5067 8.10694 25.5199 8.13014 25.5435C8.15335 25.567 8.16638 25.599 8.16638 25.6323C8.17579 26.045 8.05411 26.4498 7.81933 26.7869C7.61491 27.0866 7.50539 27.4424 7.50539 27.8069C7.50539 28.1713 7.61491 28.5271 7.81933 28.8268C8.04547 29.1675 8.16627 29.569 8.16627 29.9799C8.16627 30.3907 8.04547 30.7922 7.81933 31.133C7.61326 31.4323 7.50746 31.791 7.51754 32.156C7.50682 32.5201 7.61271 32.878 7.81933 33.1759C8.04547 33.5167 8.16627 33.9182 8.16627 34.329C8.16627 34.7399 8.04547 35.1414 7.81933 35.4821C7.61326 35.7815 7.50746 36.1401 7.51754 36.5051C7.50682 36.8692 7.61271 37.2271 7.81933 37.525C8.04547 37.8658 8.16627 38.2673 8.16627 38.6781C8.16627 39.089 8.04547 39.4905 7.81933 39.8313C7.61479 40.132 7.50526 40.4888 7.50526 40.8542C7.50526 41.2197 7.61479 41.5765 7.81933 41.8772C8.04572 42.2184 8.16666 42.6205 8.16666 43.0319C8.16666 43.4433 8.04572 43.8453 7.81933 44.1865C7.61287 44.4857 7.50703 44.8444 7.51754 45.2095C7.51754 45.2262 7.51425 45.2428 7.50784 45.2583C7.50143 45.2737 7.49205 45.2877 7.48024 45.2994C7.46843 45.3111 7.45443 45.3203 7.43907 45.3264C7.4237 45.3325 7.40729 45.3355 7.39079 45.3351Z" fill="#002692"/>
<path d="M7.72283 25.4424C7.48442 25.4424 5.91211 26.8788 5.91211 28.3428H9.53355C9.53959 26.8788 7.95823 25.4424 7.72283 25.4424Z" fill="#263238"/>
<path d="M8.07858 25.4884H7.36636C7.30803 25.4884 7.26074 25.5364 7.26074 25.5956V25.6722C7.26074 25.7314 7.30803 25.7794 7.36636 25.7794H8.07858C8.13692 25.7794 8.18421 25.7314 8.18421 25.6722V25.5956C8.18421 25.5364 8.13692 25.4884 8.07858 25.4884Z" fill="#002692"/>
<path d="M60.4529 45.202C62.2809 43.4985 62.402 40.6136 60.7235 38.7584C59.0449 36.9032 56.2023 36.7803 54.3743 38.4838C52.5463 40.1874 52.4252 43.0723 54.1038 44.9275C55.7823 46.7826 58.6249 46.9056 60.4529 45.202Z" fill="#DE5753"/>
</svg>
