<svg width="21" height="24" viewBox="0 0 21 24" fill="none" xmlns="http://www.w3.org/2000/svg">
<path d="M20.8209 22.4298C20.9499 23.2941 20.348 24 19.4739 24H1.36133C0.487222 24 -0.11462 23.2941 0.0143462 22.4298L1.87719 6.75629C2.00616 5.89195 2.82294 5.18607 3.68272 5.18607H17.1525C18.0266 5.18607 18.8434 5.89195 18.9724 6.75629L20.8209 22.4298Z" fill="#2ADBAC"/>
<path d="M10.4176 18.4394C7.70933 18.4394 4.97238 16.6098 4.97238 13.1092C4.97238 12.6771 5.33062 12.3169 5.76051 12.3169C6.1904 12.3169 6.54864 12.6771 6.54864 13.1092C6.54864 15.6879 8.55478 16.8547 10.4176 16.8547C12.2805 16.8547 14.2866 15.6879 14.2866 13.1092C14.2866 12.6771 14.6448 12.3169 15.0747 12.3169C15.5046 12.3169 15.8629 12.6771 15.8629 13.1092C15.8629 16.6098 13.1259 18.4394 10.4176 18.4394Z" fill="#002692"/>
<path d="M15.0747 6.12245C14.6448 6.12245 14.2866 5.7623 14.2866 5.33013C14.2866 2.7515 12.2805 1.58463 10.4176 1.58463C8.55478 1.58463 6.54864 2.7515 6.54864 5.33013C6.54864 5.7623 6.1904 6.12245 5.76051 6.12245C5.33062 6.12245 4.97238 5.7623 4.97238 5.33013C4.97238 1.82953 7.70933 0 10.4176 0C13.1259 0 15.8629 1.82953 15.8629 5.33013C15.8629 5.77671 15.519 6.12245 15.0747 6.12245Z" fill="#2ADBAC"/>
<path d="M7.06449 10.0696C7.06449 10.7899 6.47698 11.3805 5.7605 11.3805C5.04403 11.3805 4.45651 10.7899 4.45651 10.0696C4.45651 9.34933 5.04403 8.7587 5.7605 8.7587C6.47698 8.7587 7.06449 9.34933 7.06449 10.0696Z" fill="#002692"/>
<path d="M13.6418 11.2653C13.3838 11.2653 13.1259 11.1357 12.9683 10.8908C12.739 10.5162 12.8393 10.0264 13.2119 9.79592C13.2835 9.75271 15.1034 8.61465 16.7799 9.82474C17.1382 10.084 17.2098 10.5738 16.9662 10.934C16.7083 11.2941 16.2211 11.3662 15.8629 11.1213C15.0604 10.545 14.0717 11.1357 14.0573 11.1501C13.9284 11.2221 13.7851 11.2653 13.6418 11.2653Z" fill="#002692"/>
</svg>
