<svg width="300" height="300" viewBox="0 0 300 300" fill="none" xmlns="http://www.w3.org/2000/svg">
<path d="M75.666 203.214H152.73V243C152.73 243.51 152.63 244.014 152.434 244.485C152.239 244.956 151.953 245.384 151.593 245.745C151.233 246.105 150.805 246.391 150.334 246.586C149.863 246.782 149.358 246.882 148.848 246.882H79.548C79.0382 246.882 78.5334 246.782 78.0624 246.586C77.5914 246.391 77.1635 246.105 76.803 245.745C76.4426 245.384 76.1566 244.956 75.9615 244.485C75.7664 244.014 75.666 243.51 75.666 243V203.214Z" fill="#002692"/>
<path d="M75.666 203.214H130.2L123.492 194.628C122.754 193.686 120.93 192.924 119.412 192.924H70.368C68.856 192.924 68.22 193.686 68.958 194.628L75.666 203.214Z" fill="#002692"/>
<path opacity="0.2" d="M75.666 203.214H130.2L123.492 194.628C122.754 193.686 120.93 192.924 119.412 192.924H70.368C68.856 192.924 68.22 193.686 68.958 194.628L75.666 203.214Z" fill="black"/>
<path d="M152.73 203.214H98.202L104.91 197.616C105.648 197.016 107.472 196.506 108.99 196.506H158.028C159.546 196.506 160.176 197.004 159.438 197.616L152.73 203.214Z" fill="#002692"/>
<path opacity="0.2" d="M98.202 203.214H152.73V243C152.73 243.51 152.63 244.014 152.435 244.485C152.239 244.956 151.953 245.384 151.593 245.745C151.233 246.105 150.805 246.391 150.334 246.586C149.863 246.782 149.358 246.882 148.848 246.882H102.084C101.574 246.882 101.069 246.782 100.598 246.586C100.127 246.391 99.6995 246.105 99.339 245.745C98.9786 245.384 98.6926 244.956 98.4975 244.485C98.3024 244.014 98.202 243.51 98.202 243V203.214Z" fill="white"/>
<path opacity="0.5" d="M82.434 203.214V230.502L84.318 229.014L85.644 230.502L86.796 228.846L87.978 230.502L89.622 229.26L91.434 230.502V203.214H82.434Z" fill="white"/>
<path d="M94.6321 143.688L84.9421 135.552" stroke="#002692" stroke-miterlimit="10"/>
<path d="M99.654 147.906L96.702 145.422" stroke="#002692" stroke-miterlimit="10"/>
<path d="M128.682 164.934L160.65 124.98L118.086 89.2439L89.886 121.602L85.686 129.696C85.4775 129.926 85.3187 130.196 85.2194 130.49C85.1201 130.784 85.0825 131.095 85.1089 131.404C85.1354 131.714 85.2253 132.014 85.3732 132.287C85.521 132.56 85.7235 132.799 85.968 132.99L124.368 165.234C124.992 165.737 125.784 165.986 126.584 165.93C127.384 165.874 128.133 165.519 128.682 164.934Z" fill="#002692"/>
<path opacity="0.5" d="M106.758 135.468L102.156 142.878L104.01 143.28L104.64 144.996L105.87 145.068L106.44 146.538L107.946 146.976L109.104 148.818L113.706 141.408L106.758 135.468Z" fill="white"/>
<path opacity="0.1" d="M159.258 123.81L130.59 155.79L89.868 121.602L118.086 89.2439L159.258 123.81Z" fill="black"/>
<path d="M159.258 123.81L130.59 155.79L142.458 156.666L170.682 124.308L159.258 123.81Z" fill="#002692"/>
<path opacity="0.3" d="M159.258 123.81L130.59 155.79L142.458 156.666L170.682 124.308L159.258 123.81Z" fill="black"/>
<path d="M106.668 88.74L77.994 120.726L89.868 121.602L118.086 89.244L106.668 88.74Z" fill="#002692"/>
<path opacity="0.4" d="M106.668 88.74L77.994 120.726L89.868 121.602L118.086 89.244L106.668 88.74Z" fill="black"/>
<path opacity="0.1" d="M150.432 133.656L159.258 123.81L118.086 89.2439L112.818 101.94L150.432 133.656Z" fill="black"/>
<path opacity="0.2" d="M89.868 121.602L118.086 89.2439L112.818 101.94L92.946 124.188L89.868 121.602Z" fill="black"/>
<path d="M169.2 63.6C169.314 63.984 169.2 64.362 168.948 64.434C168.696 64.506 168.402 64.254 168.288 63.87C168.174 63.486 168.288 63.108 168.54 63.03C168.792 62.952 169.092 63.216 169.2 63.6Z" fill="#263238"/>
<path d="M169.242 64.356C169.129 65.6761 168.834 66.9744 168.366 68.214C168.687 68.3252 169.028 68.3651 169.366 68.331C169.704 68.2968 170.03 68.1893 170.322 68.016L169.242 64.356Z" fill="#ED847E"/>
<path d="M169.998 61.038C170.049 61.0087 170.087 60.9617 170.106 60.906C170.117 60.8769 170.123 60.8458 170.121 60.8146C170.12 60.7835 170.113 60.7529 170.099 60.7247C170.086 60.6966 170.066 60.6716 170.043 60.6511C170.019 60.6307 169.992 60.6153 169.962 60.606C169.611 60.4712 169.232 60.4232 168.858 60.466C168.484 60.5088 168.126 60.6412 167.814 60.852C167.773 60.8931 167.749 60.9475 167.745 61.0052C167.742 61.0629 167.759 61.1199 167.794 61.1659C167.829 61.2119 167.879 61.2437 167.936 61.2554C167.993 61.2672 168.052 61.2582 168.102 61.23C168.351 61.0665 168.636 60.9649 168.932 60.9336C169.229 60.9022 169.528 60.9421 169.806 61.05C169.837 61.0613 169.87 61.0661 169.903 61.064C169.936 61.062 169.969 61.0531 169.998 61.038Z" fill="#263238"/>
<path d="M182.544 66.1679C182.808 69.3479 183.594 75.1679 185.472 76.5119C185.472 76.5119 185.028 80.3339 178.272 81.3119C170.868 82.4039 174.192 78.1559 174.192 78.1559C178.086 76.5959 177.54 73.6139 176.424 70.9019L179.28 67.6259C180.378 66.4139 182.4 64.5419 182.544 66.1679Z" fill="#FFC3BD"/>
<path d="M187.89 78.066C188.49 77.52 187.29 75.336 186.552 75.03C184.62 74.22 176.718 75.03 173.748 77.58C173.502 78.0019 173.353 78.4736 173.312 78.9605C173.272 79.4474 173.341 79.9372 173.514 80.394L187.89 78.066Z" fill="white"/>
<path d="M213.054 238.446C212.859 238.535 212.648 238.584 212.434 238.59C212.219 238.596 212.006 238.56 211.806 238.482C211.727 238.419 211.669 238.334 211.64 238.238C211.611 238.141 211.612 238.038 211.644 237.942C211.66 237.864 211.693 237.79 211.741 237.725C211.788 237.661 211.85 237.608 211.92 237.57C212.568 237.192 214.17 237.69 214.236 237.714C214.258 237.72 214.278 237.732 214.293 237.749C214.308 237.766 214.317 237.787 214.32 237.81C214.323 237.834 214.319 237.858 214.308 237.879C214.298 237.901 214.281 237.918 214.26 237.93C213.877 238.143 213.473 238.315 213.054 238.446ZM212.178 237.714L212.04 237.774C211.999 237.796 211.963 237.827 211.935 237.864C211.907 237.902 211.888 237.944 211.878 237.99C211.836 238.206 211.92 238.272 211.944 238.29C212.232 238.494 213.21 238.2 213.888 237.858C213.336 237.685 212.752 237.635 212.178 237.714Z" fill="#002692"/>
<path d="M214.236 237.936C214.217 237.942 214.196 237.942 214.176 237.936C213.576 237.816 212.322 237.066 212.256 236.502C212.247 236.413 212.268 236.324 212.318 236.249C212.367 236.175 212.441 236.12 212.526 236.094C212.609 236.057 212.699 236.038 212.79 236.038C212.881 236.038 212.971 236.057 213.054 236.094C213.75 236.382 214.29 237.726 214.308 237.78C214.32 237.798 214.326 237.819 214.326 237.84C214.326 237.861 214.32 237.882 214.308 237.9C214.3 237.911 214.289 237.92 214.276 237.926C214.264 237.933 214.25 237.936 214.236 237.936ZM212.676 236.298C212.658 236.293 212.64 236.293 212.622 236.298C212.484 236.358 212.49 236.43 212.496 236.46C212.532 236.796 213.384 237.402 213.99 237.624C213.81 237.234 213.39 236.478 212.964 236.298C212.871 236.262 212.769 236.262 212.676 236.298Z" fill="#002692"/>
<path d="M177.888 244.89C177.246 244.89 176.628 244.8 176.418 244.512C176.364 244.437 176.335 244.346 176.335 244.254C176.335 244.161 176.364 244.071 176.418 243.996C176.458 243.927 176.512 243.866 176.575 243.817C176.639 243.769 176.712 243.734 176.79 243.714C177.624 243.492 179.376 244.488 179.448 244.53C179.47 244.541 179.488 244.558 179.5 244.58C179.511 244.602 179.515 244.627 179.511 244.652C179.507 244.676 179.495 244.698 179.477 244.715C179.459 244.732 179.437 244.743 179.412 244.746C178.909 244.84 178.399 244.888 177.888 244.89ZM177.096 243.918C177.019 243.915 176.942 243.925 176.868 243.948C176.772 243.969 176.688 244.028 176.634 244.11C176.55 244.26 176.58 244.332 176.634 244.374C176.868 244.698 178.134 244.704 179.034 244.572C178.436 244.231 177.778 244.009 177.096 243.918Z" fill="#002692"/>
<path d="M179.4 244.752H179.352C178.752 244.482 177.552 243.396 177.642 242.832C177.642 242.7 177.762 242.532 178.086 242.502C178.203 242.489 178.322 242.5 178.434 242.535C178.547 242.57 178.651 242.629 178.74 242.706C179.382 243.228 179.514 244.578 179.52 244.632C179.523 244.653 179.521 244.674 179.512 244.693C179.504 244.712 179.49 244.729 179.472 244.74C179.45 244.752 179.425 244.756 179.4 244.752ZM178.2 242.724H178.128C177.912 242.724 177.9 242.832 177.894 242.856C177.84 243.198 178.656 244.056 179.268 244.422C179.216 243.85 178.985 243.308 178.608 242.874C178.496 242.775 178.35 242.721 178.2 242.724Z" fill="#002692"/>
<path d="M184.908 244.632H179.898L179.4 233.04H184.41L184.908 244.632Z" fill="#FFC3BD"/>
<path d="M220.098 236.718L215.484 238.308L210.696 227.382L215.31 225.792L220.098 236.718Z" fill="#FFC3BD"/>
<path d="M214.386 237.162L219.786 235.512C219.882 235.483 219.984 235.487 220.077 235.524C220.17 235.561 220.247 235.629 220.296 235.716L222.546 239.676C222.6 239.773 222.632 239.881 222.638 239.991C222.645 240.102 222.626 240.213 222.584 240.315C222.542 240.418 222.478 240.51 222.395 240.584C222.313 240.658 222.214 240.713 222.108 240.744C220.218 241.29 219.276 241.458 216.912 242.184C215.454 242.628 211.782 244.02 209.712 244.434C207.642 244.848 206.976 242.868 207.78 242.514C211.38 240.924 212.856 239.118 213.714 237.714C213.864 237.455 214.103 237.258 214.386 237.162Z" fill="#263238"/>
<path d="M179.934 244.05H185.4C185.499 244.051 185.595 244.086 185.672 244.148C185.749 244.21 185.803 244.296 185.826 244.392L186.816 248.844C186.841 248.951 186.84 249.063 186.816 249.17C186.791 249.277 186.742 249.378 186.672 249.463C186.603 249.549 186.515 249.617 186.415 249.664C186.315 249.711 186.206 249.734 186.096 249.732C184.122 249.702 181.296 249.582 178.794 249.582C175.896 249.582 174.678 249.744 171.276 249.744C169.224 249.744 168.654 247.668 169.512 247.476C173.43 246.618 175.344 246.528 178.728 244.44C179.087 244.202 179.504 244.067 179.934 244.05Z" fill="#263238"/>
<path d="M194.484 79.7039C195.942 81.0419 197.202 82.3799 198.51 83.7779C199.818 85.1759 201.03 86.6219 202.206 88.1639C203.434 89.7305 204.549 91.3827 205.542 93.1079C206.085 94.0588 206.554 95.0497 206.946 96.0719C207.048 96.3539 207.15 96.6239 207.234 96.9299C207.332 97.2394 207.414 97.5539 207.48 97.8719L207.582 98.3699L207.654 98.9219C207.721 99.4277 207.721 99.9401 207.654 100.446C207.516 101.401 207.163 102.312 206.622 103.11C206.227 103.693 205.764 104.227 205.242 104.7C204.403 105.461 203.486 106.131 202.506 106.698C200.78 107.686 198.973 108.527 197.106 109.212C193.564 110.527 189.914 111.531 186.198 112.212L185.148 108.612C188.406 107.202 191.706 105.678 194.748 104.052C196.229 103.275 197.654 102.397 199.014 101.424C199.58 101.022 200.101 100.559 200.568 100.044C200.71 99.8917 200.829 99.72 200.922 99.5339C200.97 99.4319 200.922 99.4439 200.862 99.6599C200.82 100.062 200.826 99.7499 200.73 99.5339C200.7 99.4319 200.646 99.2939 200.592 99.1619C200.538 99.0299 200.472 98.8799 200.406 98.7359C200.081 98.0816 199.718 97.4465 199.32 96.8339C198.393 95.458 197.392 94.1341 196.32 92.8679C195.216 91.5599 194.052 90.2579 192.858 88.9799C191.664 87.7019 190.41 86.4119 189.258 85.2239L194.484 79.7039Z" fill="#FFC3BD"/>
<path d="M186.522 108.042L181.8 109.47L184.836 114.462C184.836 114.462 187.626 113.31 188.244 110.94L186.522 108.042Z" fill="#FFC3BD"/>
<path d="M179.892 111.24L181.752 115.356L184.806 114.468L181.77 109.47L179.892 111.24Z" fill="#FFC3BD"/>
<path d="M183.42 81.06C182.97 85.86 193.122 93.288 193.122 93.288L202.896 86.598C201.199 83.4678 198.718 80.8318 195.696 78.948C190.092 75.36 183.984 75.096 183.42 81.06Z" fill="#002692"/>
<g opacity="0.3">
<path opacity="0.3" d="M183.42 81.06C182.97 85.86 193.122 93.288 193.122 93.288L202.896 86.598C201.199 83.4678 198.718 80.8318 195.696 78.948C190.092 75.36 183.984 75.096 183.42 81.06Z" fill="white"/>
</g>
<path d="M166.8 80.6759C166.8 80.6759 162.414 87.4079 172.83 123.516L199.314 119.604C198.942 115.944 194.514 99.9779 194.364 82.5239C194.358 81.681 194.181 80.8481 193.844 80.0754C193.507 79.3028 193.017 78.6064 192.404 78.0283C191.79 77.4502 191.066 77.0024 190.275 76.7118C189.484 76.4213 188.642 76.2941 187.8 76.3379C187.032 76.3799 186.24 76.4339 185.454 76.5119C181.673 76.849 177.915 77.4039 174.198 78.1739C171.671 78.8167 169.198 79.6532 166.8 80.6759Z" fill="#002692"/>
<g opacity="0.3">
<path opacity="0.3" d="M166.8 80.6759C166.8 80.6759 162.414 87.4079 172.83 123.516L199.314 119.604C198.942 115.944 194.514 99.9779 194.364 82.5239C194.358 81.681 194.181 80.8481 193.844 80.0754C193.507 79.3028 193.017 78.6064 192.404 78.0283C191.79 77.4502 191.066 77.0024 190.275 76.7118C189.484 76.4213 188.642 76.2941 187.8 76.3379C187.032 76.3799 186.24 76.4339 185.454 76.5119C181.673 76.849 177.915 77.4039 174.198 78.1739C171.671 78.8167 169.198 79.6532 166.8 80.6759Z" fill="white"/>
</g>
<path opacity="0.2" d="M166.152 92.2799L166.242 92.1779L172.47 92.7299C173.418 96.7499 169.95 102.234 168.12 104.778C167.239 100.65 166.582 96.4784 166.152 92.2799Z" fill="black"/>
<path opacity="0.2" d="M179.4 233.046L179.658 239.022H184.668L184.41 233.046H179.4Z" fill="black"/>
<path opacity="0.2" d="M215.31 225.792L210.696 227.382L213.168 233.016L217.782 231.426L215.31 225.792Z" fill="black"/>
<path d="M181.89 58.9919C182.994 63.8339 183.882 66.6119 182.196 69.7919C179.664 74.5259 173.148 74.0699 170.622 69.6539C168.348 65.6759 166.92 58.4279 171.024 55.1639C171.923 54.4418 172.992 53.961 174.129 53.7671C175.266 53.5732 176.434 53.6726 177.522 54.0559C178.61 54.4391 179.582 55.0936 180.346 55.9573C181.11 56.821 181.642 57.8655 181.89 58.9919Z" fill="#FFC3BD"/>
<path d="M172.164 63.738L170.322 64.866L170.496 58.566C169.308 58.617 168.137 58.2777 167.16 57.6C167.826 56.964 178.194 53.334 181.428 53.964C181.764 53.826 182.172 53.202 182.172 53.202C182.172 53.202 182.298 53.988 181.752 54.288C182.148 54.21 183.138 54.402 183.414 54.984C182.96 54.8599 182.477 54.8873 182.04 55.062C182.04 55.062 185.64 55.608 184.362 60.6C182.928 66.102 183.402 69.264 183.402 69.264C183.402 69.264 180.726 71.334 178.398 70.95C175.914 68.214 172.326 64.926 172.164 63.738Z" fill="#263238"/>
<path d="M168.636 57.102C165.714 57.102 164.664 55.674 163.914 54.474C166.014 54.252 170.388 52.902 173.634 52.674C176.88 52.446 180.438 53.052 179.364 54.474C178.29 55.896 168.636 57.102 168.636 57.102Z" fill="#263238"/>
<path d="M169.278 55.8C166.878 55.464 164.538 53.202 166.338 51.0359C167.004 52.626 171.498 52.44 174.69 51.774C178.89 50.898 181.8 52.314 180.312 55.176C179.496 56.742 169.278 55.8 169.278 55.8Z" fill="#263238"/>
<path d="M174.756 62.304C175.099 63.4887 175.045 64.7534 174.6 65.904C174 67.41 172.668 67.104 171.972 65.802C171.372 64.602 170.916 62.424 171.936 61.338C172.956 60.252 174.324 60.882 174.756 62.304Z" fill="#FFC3BD"/>
<path d="M182.226 122.13C182.226 122.13 186.522 158.7 189.642 173.028C193.056 188.724 209.898 231.516 209.898 231.516L218.298 228.612C218.298 228.612 207.498 196.392 204.63 174.45C202.428 157.602 199.29 119.604 199.29 119.604L182.226 122.13Z" fill="#263238"/>
<path d="M207.75 228.828C207.708 228.828 209.472 232.428 209.472 232.428L219.282 229.242L218.13 226.314L207.75 228.828Z" fill="#002692"/>
<path opacity="0.3" d="M184.596 140.892C185.94 151.056 187.662 163.092 189.174 170.778C191.4 159 191.922 144.126 184.596 140.892Z" fill="black"/>
<path d="M172.83 123.516C172.83 123.516 169.266 157.872 169.83 173.136C170.394 189.012 177.81 237.864 177.81 237.864H186.288C186.288 237.864 184.728 189.936 185.088 174.348C185.502 157.35 191.874 120.702 191.874 120.702L172.83 123.516Z" fill="#263238"/>
<path d="M176.16 234.486C176.124 234.486 176.64 238.002 176.64 238.002H186.954L187.236 234.864L176.16 234.486Z" fill="#002692"/>
<path d="M171.186 89.112C170.25 90.6 169.302 91.938 168.318 93.312C167.334 94.686 166.302 96.012 165.252 97.332C163.112 100.01 160.792 102.54 158.31 104.904C157.638 105.504 157.02 106.104 156.294 106.65L155.766 107.076L155.502 107.286C155.406 107.364 155.364 107.406 155.166 107.55C154.572 107.974 153.919 108.309 153.228 108.546C152.158 108.911 151.04 109.113 149.91 109.146C148.954 109.178 147.997 109.136 147.048 109.02C143.578 108.565 140.192 107.607 136.998 106.176L138.036 102.576C141.106 102.94 144.197 103.089 147.288 103.02C147.972 102.984 148.653 102.91 149.328 102.798C149.837 102.724 150.331 102.57 150.792 102.342C150.936 102.264 151.014 102.186 150.996 102.168C150.978 102.15 151.074 102.09 151.128 102.036L151.332 101.85L151.734 101.472C152.274 100.992 152.784 100.41 153.312 99.882C154.35 98.766 155.382 97.62 156.36 96.402C157.338 95.184 158.328 93.96 159.288 92.7C160.248 91.44 161.178 90.162 162.114 88.884C163.05 87.606 163.962 86.262 164.826 85.02L171.186 89.112Z" fill="#FFC3BD"/>
<path d="M174.672 87.5219C176.688 94.1219 164.982 101.436 164.982 101.436L157.374 91.7459C159.089 88.5508 161.206 85.5887 163.674 82.9319C168.852 77.2979 173.136 82.4999 174.672 87.5219Z" fill="#002692"/>
<g opacity="0.3">
<path opacity="0.3" d="M174.672 87.5219C176.688 94.1219 164.982 101.436 164.982 101.436L157.374 91.7459C159.089 88.5508 161.206 85.5887 163.674 82.9319C168.852 77.2979 173.136 82.4999 174.672 87.5219Z" fill="white"/>
</g>
<path d="M139.8 102.798L133.638 101.67L134.286 106.998C134.286 106.998 137.49 108.798 139.812 105.984L139.8 102.798Z" fill="#FFC3BD"/>
<path d="M131.262 102.87L132.594 106.716L134.274 106.998L133.626 101.67L131.262 102.87Z" fill="#FFC3BD"/>
</svg>
