<svg width="18" height="18" viewBox="0 0 18 18" fill="none" xmlns="http://www.w3.org/2000/svg">
<g clip-path="url(#clip0)">
<path d="M9.00094 0C4.03832 0 0.00100708 4.03744 0.00100708 9.00006C0.00100708 13.9626 4.03838 18 9.00094 18C13.9636 18 18.0009 13.9626 18.0009 9.00006C18.0009 4.03744 13.9636 0 9.00094 0ZM8.03756 3.31294C8.03756 2.79245 8.45953 2.37048 8.98002 2.37048C9.50051 2.37048 9.92248 2.79245 9.92248 3.31294V6.34195C9.92248 6.86244 9.50051 7.28441 8.98002 7.28441C8.45953 7.28441 8.03756 6.86244 8.03756 6.34195V3.31294ZM9.00094 14.9391C5.70001 14.9391 3.01449 12.2536 3.01449 8.95263C3.01449 7.15051 3.81552 5.46156 5.21225 4.3188C5.61512 3.98919 6.20887 4.04862 6.53848 4.45137C6.86809 4.85424 6.80872 5.44799 6.40591 5.7776C5.44856 6.56091 4.89942 7.71819 4.89942 8.95256C4.89942 11.2142 6.73935 13.0541 9.00094 13.0541C11.2626 13.0541 13.1025 11.2142 13.1025 8.95256C13.1025 7.77172 12.5923 6.64737 11.7027 5.86789C11.3111 5.52489 11.2718 4.92938 11.6148 4.53795C11.9579 4.14645 12.5533 4.10712 12.9448 4.45018C14.2429 5.5876 14.9875 7.22861 14.9875 8.95256C14.9875 12.2535 12.3019 14.9391 9.00094 14.9391Z" fill="#353D46"/>
</g>
<defs>
<clipPath id="clip0">
<rect width="18" height="18" fill="white"/>
</clipPath>
</defs>
</svg>
