<svg width="217" height="271" viewBox="0 0 217 271" fill="none" xmlns="http://www.w3.org/2000/svg">
<path d="M216.125 91.0822H9.3269V141.18H216.125V91.0822Z" fill="#002692"/>
<path opacity="0.6" d="M216.125 91.0822H9.3269V141.18H216.125V91.0822Z" fill="#FAFAFA"/>
<path d="M211.461 95.7446H4.66357V145.842H211.461V95.7446Z" fill="#002692"/>
<path opacity="0.3" d="M211.461 95.7446H4.66357V145.842H211.461V95.7446Z" fill="#020D18"/>
<path d="M206.798 100.407H0V150.505H206.798V100.407Z" fill="#002692"/>
<path opacity="0.1" d="M206.798 100.407H0V150.505H206.798V100.407Z" fill="#FAFAFA"/>
<path d="M196.931 140.64V110.272L9.86635 110.272V140.64H196.931Z" fill="#002692"/>
<path opacity="0.9" d="M196.931 140.64V110.272L9.86635 110.272V140.64H196.931Z" fill="#FAFAFA"/>
<path d="M165.464 110.271V140.64H166.563V110.271H165.464Z" fill="#002692"/>
<path opacity="0.6" d="M165.464 110.271V140.64H166.563V110.271H165.464Z" fill="#FAFAFA"/>
<path d="M14.5298 114.46L14.5298 136.451H15.6287L15.6287 114.46H14.5298Z" fill="#002692"/>
<path opacity="0.6" d="M14.5298 114.46L14.5298 136.451H15.6287L15.6287 114.46H14.5298Z" fill="#FAFAFA"/>
<path d="M180.698 129.29C179.9 129.289 179.114 129.092 178.41 128.716C177.706 128.339 177.106 127.795 176.663 127.132C176.22 126.468 175.947 125.706 175.869 124.911C175.791 124.117 175.91 123.316 176.215 122.579C176.521 121.842 177.003 121.191 177.62 120.685C178.237 120.179 178.97 119.832 179.752 119.677C180.535 119.521 181.344 119.56 182.108 119.792C182.872 120.023 183.567 120.44 184.131 121.004C184.811 121.682 185.273 122.547 185.461 123.489C185.648 124.431 185.552 125.407 185.185 126.294C184.817 127.181 184.194 127.939 183.396 128.472C182.597 129.006 181.658 129.29 180.698 129.29ZM180.698 120.905C179.879 120.905 179.086 121.189 178.453 121.709C177.82 122.229 177.387 122.952 177.228 123.755C177.068 124.558 177.193 125.391 177.579 126.113C177.966 126.835 178.591 127.4 179.348 127.713C180.104 128.026 180.946 128.066 181.73 127.828C182.513 127.589 183.189 127.086 183.644 126.405C184.098 125.724 184.301 124.906 184.22 124.091C184.139 123.277 183.777 122.516 183.197 121.938C182.873 121.603 182.484 121.336 182.055 121.153C181.626 120.97 181.164 120.875 180.698 120.872V120.905Z" fill="#002692"/>
<path d="M186.993 131.355C186.906 131.354 186.82 131.337 186.739 131.303C186.659 131.269 186.587 131.22 186.526 131.158L183.204 127.837C183.135 127.778 183.079 127.705 183.04 127.623C183 127.542 182.978 127.453 182.975 127.362C182.971 127.272 182.986 127.182 183.019 127.097C183.053 127.013 183.103 126.936 183.167 126.872C183.231 126.808 183.308 126.758 183.392 126.725C183.476 126.692 183.567 126.676 183.657 126.68C183.748 126.683 183.837 126.706 183.918 126.745C184 126.785 184.072 126.84 184.131 126.909L187.453 130.23C187.576 130.353 187.644 130.52 187.644 130.694C187.644 130.868 187.576 131.034 187.453 131.158C187.332 131.281 187.166 131.352 186.993 131.355Z" fill="#002692"/>
<g opacity="0.6">
<path opacity="0.6" d="M180.698 129.29C179.9 129.289 179.114 129.092 178.41 128.716C177.706 128.339 177.106 127.795 176.663 127.132C176.22 126.468 175.947 125.706 175.869 124.911C175.791 124.117 175.91 123.316 176.215 122.579C176.521 121.842 177.003 121.191 177.62 120.685C178.237 120.179 178.97 119.832 179.752 119.677C180.535 119.521 181.344 119.56 182.108 119.792C182.872 120.023 183.567 120.44 184.131 121.004C184.811 121.682 185.273 122.547 185.461 123.489C185.648 124.431 185.552 125.407 185.185 126.294C184.817 127.181 184.194 127.939 183.396 128.472C182.597 129.006 181.658 129.29 180.698 129.29ZM180.698 120.905C179.879 120.905 179.086 121.189 178.453 121.709C177.82 122.229 177.387 122.952 177.228 123.755C177.068 124.558 177.193 125.391 177.579 126.113C177.966 126.835 178.591 127.4 179.348 127.713C180.104 128.026 180.946 128.066 181.73 127.828C182.513 127.589 183.189 127.086 183.644 126.405C184.098 125.724 184.301 124.906 184.22 124.091C184.139 123.277 183.777 122.516 183.197 121.938C182.873 121.603 182.484 121.336 182.055 121.153C181.626 120.97 181.164 120.875 180.698 120.872V120.905Z" fill="#FAFAFA"/>
<path opacity="0.6" d="M186.993 131.355C186.906 131.354 186.82 131.337 186.739 131.303C186.659 131.269 186.587 131.219 186.526 131.157L183.204 127.836C183.135 127.777 183.079 127.705 183.04 127.623C183 127.542 182.978 127.453 182.975 127.362C182.971 127.272 182.986 127.181 183.019 127.097C183.053 127.013 183.103 126.936 183.167 126.872C183.231 126.808 183.308 126.758 183.392 126.725C183.476 126.691 183.567 126.676 183.657 126.68C183.748 126.683 183.837 126.705 183.918 126.745C184 126.784 184.072 126.84 184.131 126.909L187.453 130.23C187.576 130.353 187.644 130.52 187.644 130.694C187.644 130.867 187.576 131.034 187.453 131.157C187.332 131.281 187.166 131.352 186.993 131.355Z" fill="#FAFAFA"/>
</g>
<path d="M192.656 166.202H209.461L180.77 136.451L192.656 166.202Z" fill="#002692"/>
<g opacity="0.1">
<path opacity="0.1" d="M192.656 166.202H209.461L180.77 136.451L192.656 166.202Z" fill="#020D18"/>
</g>
<g style="mix-blend-mode:multiply">
<path d="M176.501 150.498L180.77 136.451L183.191 150.498H176.501Z" fill="#002692"/>
</g>
<path d="M180.77 136.451V178.078L183.743 175.113L192.656 166.202L180.77 136.451Z" fill="#002692"/>
<path opacity="0.3" d="M180.77 136.451V178.078L183.743 175.113L192.656 166.202L180.77 136.451Z" fill="#FAFAFA"/>
<path d="M152.882 107.444C151.308 103.123 148.907 99.1513 145.811 95.7512H93.5127C90.4169 99.1513 88.015 103.123 86.4419 107.444L93.6772 143.455C99.2123 149.454 106.654 153.352 114.738 154.488C122.822 155.623 131.05 153.925 138.024 149.683C144.998 145.44 150.288 138.915 152.995 131.215C155.702 123.515 155.66 115.116 152.875 107.444H152.882Z" fill="#002692"/>
<path opacity="0.1" d="M152.882 107.444C151.308 103.123 148.907 99.1513 145.811 95.7512H93.5127C90.4169 99.1513 88.015 103.123 86.4419 107.444L93.6772 143.455C99.2123 149.454 106.654 153.352 114.738 154.488C122.822 155.623 131.05 153.925 138.024 149.683C144.998 145.44 150.288 138.915 152.995 131.215C155.702 123.515 155.66 115.116 152.875 107.444H152.882Z" fill="#FAFAFA"/>
<path d="M154.967 121.142C154.593 129.445 151.294 137.349 145.653 143.455H93.6904C89.3037 138.689 86.3093 132.811 85.0335 126.461C83.7577 120.111 84.2495 113.533 86.4551 107.444H152.888C154.484 111.827 155.19 116.483 154.967 121.142Z" fill="#002692"/>
<path opacity="0.9" d="M154.967 121.142C154.593 129.445 151.294 137.349 145.653 143.455H93.6904C89.3037 138.689 86.3093 132.811 85.0335 126.461C83.7577 120.111 84.2495 113.533 86.4551 107.444H152.888C154.484 111.827 155.19 116.483 154.967 121.142Z" fill="#FAFAFA"/>
<path opacity="0.3" d="M154.967 121.142C154.558 129.88 150.914 138.154 144.744 144.356C138.574 150.558 130.318 154.245 121.58 154.701C112.843 155.156 104.248 152.348 97.466 146.822C90.6838 141.295 86.1988 133.446 84.8824 124.798C83.5661 116.15 85.5124 107.321 90.3432 100.028C95.1741 92.7347 102.544 87.4974 111.022 85.3339C119.499 83.1703 128.479 84.2351 136.215 88.3212C143.951 92.4073 149.891 99.2229 152.882 107.444C154.477 111.827 155.186 116.483 154.967 121.142Z" fill="white"/>
<path opacity="0.4" d="M139.582 90.3324L88.7639 136.668C88.5096 136.199 88.2596 135.726 88.0141 135.248C86.4602 132.138 85.3805 128.813 84.8108 125.383L128.703 85.3608C132.587 86.3841 136.266 88.0657 139.582 90.3324Z" fill="white"/>
<path opacity="0.4" d="M153.178 108.292L105.431 151.853C100.479 149.668 96.0948 146.374 92.6184 142.225L144.791 94.653C148.593 98.4982 151.462 103.164 153.178 108.292Z" fill="white"/>
<path d="M154.954 99.1379C150.923 92.1503 144.91 86.515 137.675 82.9451C130.44 79.3752 122.308 78.0312 114.309 79.083C106.31 80.1348 98.8025 83.5352 92.7369 88.854C86.6712 94.1728 82.3198 101.171 80.2333 108.963C78.1468 116.755 78.4189 124.991 81.0152 132.628C83.6115 140.265 88.4154 146.961 94.8189 151.868C101.222 156.775 108.938 159.673 116.989 160.194C125.04 160.716 133.065 158.838 140.049 154.799C149.402 149.388 156.225 140.488 159.02 130.052C161.815 119.615 160.352 108.497 154.954 99.1379ZM91.8092 135.596C88.629 130.09 87.1534 123.764 87.569 117.419C87.9847 111.073 90.2729 104.994 94.1443 99.9491C98.0157 94.9041 103.297 91.1202 109.319 89.0758C115.341 87.0314 121.835 86.8184 127.978 88.4636C134.122 90.1088 139.639 93.5384 143.833 98.3187C148.027 103.099 150.709 109.015 151.54 115.32C152.371 121.624 151.313 128.033 148.501 133.736C145.689 139.439 141.248 144.181 135.741 147.361C132.084 149.473 128.047 150.843 123.86 151.395C119.674 151.946 115.42 151.668 111.341 150.575C107.262 149.483 103.438 147.598 100.088 145.028C96.7378 142.458 93.9269 139.253 91.8158 135.596H91.8092Z" fill="#002692"/>
<path opacity="0.1" d="M154.954 99.1379C150.923 92.1503 144.91 86.515 137.675 82.9451C130.44 79.3752 122.308 78.0312 114.309 79.083C106.31 80.1348 98.8025 83.5352 92.7369 88.854C86.6712 94.1728 82.3198 101.171 80.2333 108.963C78.1468 116.755 78.4189 124.991 81.0152 132.628C83.6115 140.265 88.4154 146.961 94.8189 151.868C101.222 156.775 108.938 159.673 116.989 160.194C125.04 160.716 133.065 158.838 140.049 154.799C149.402 149.388 156.225 140.488 159.02 130.052C161.815 119.615 160.352 108.497 154.954 99.1379ZM91.8092 135.596C88.629 130.09 87.1534 123.764 87.569 117.419C87.9847 111.073 90.2729 104.994 94.1443 99.9491C98.0157 94.9041 103.297 91.1202 109.319 89.0758C115.341 87.0314 121.835 86.8184 127.978 88.4636C134.122 90.1088 139.639 93.5384 143.833 98.3187C148.027 103.099 150.709 109.015 151.54 115.32C152.371 121.624 151.313 128.033 148.501 133.736C145.689 139.439 141.248 144.181 135.741 147.361C132.084 149.473 128.047 150.843 123.86 151.395C119.674 151.946 115.42 151.668 111.341 150.575C107.262 149.483 103.438 147.598 100.088 145.028C96.7378 142.458 93.9269 139.253 91.8158 135.596H91.8092Z" fill="#020D18"/>
<path d="M25.8825 161.441L30.9209 162.611L26.7442 165.728C26.7442 165.728 23.7514 164.374 23.6133 162.25L25.8825 161.441Z" fill="#FFC3BD"/>
<path d="M33.6179 165.965L29.9871 168.385L26.7444 165.728L30.9211 162.618L33.6179 165.965Z" fill="#FFC3BD"/>
<path d="M90.6121 140.982C85.258 144.928 79.7658 148.676 74.2472 152.339C68.7287 156.002 63.1378 159.573 57.5206 163.078C51.9034 166.583 46.2335 170.016 40.544 173.35C37.7025 175.047 34.8347 176.691 31.9932 178.361C30.5816 179.26 29.0428 179.94 27.4284 180.38C26.567 180.609 25.6862 180.756 24.7973 180.821C23.8105 180.901 22.8174 180.85 21.844 180.67C21.1484 180.532 20.4867 180.259 19.8968 179.865C19.307 179.471 18.8006 178.966 18.4065 178.376C18.0124 177.787 17.7385 177.125 17.6004 176.43C17.4623 175.735 17.4626 175.019 17.6015 174.323C17.6465 174.1 17.7081 173.88 17.7857 173.666C18.1032 172.734 18.5457 171.849 19.1012 171.035C19.5967 170.304 20.1605 169.622 20.785 168.997C21.9746 167.819 23.3336 166.826 24.8171 166.051C27.6915 164.413 30.5461 162.763 33.4402 161.138C39.2021 157.883 45.0167 154.713 50.8444 151.583C56.6721 148.453 62.5721 145.421 68.5051 142.462C74.438 139.503 80.417 136.622 86.5209 133.965C87.4421 133.558 88.4812 133.506 89.4388 133.818C90.3964 134.13 91.2048 134.785 91.7089 135.657C92.213 136.528 92.3772 137.556 92.1699 138.541C91.9626 139.526 91.3984 140.4 90.5858 140.995L90.6121 140.982Z" fill="#002692"/>
<path opacity="0.1" d="M90.6121 140.982C85.258 144.928 79.7658 148.676 74.2472 152.339C68.7287 156.002 63.1378 159.573 57.5206 163.078C51.9034 166.583 46.2335 170.016 40.544 173.35C37.7025 175.047 34.8347 176.691 31.9932 178.361C30.5816 179.26 29.0428 179.94 27.4284 180.38C26.567 180.609 25.6862 180.756 24.7973 180.821C23.8105 180.901 22.8174 180.85 21.844 180.67C21.1484 180.532 20.4867 180.259 19.8968 179.865C19.307 179.471 18.8006 178.966 18.4065 178.376C18.0124 177.787 17.7385 177.125 17.6004 176.43C17.4623 175.735 17.4626 175.019 17.6015 174.323C17.6465 174.1 17.7081 173.88 17.7857 173.666C18.1032 172.734 18.5457 171.849 19.1012 171.035C19.5967 170.304 20.1605 169.622 20.785 168.997C21.9746 167.819 23.3336 166.826 24.8171 166.051C27.6915 164.413 30.5461 162.763 33.4402 161.138C39.2021 157.883 45.0167 154.713 50.8444 151.583C56.6721 148.453 62.5721 145.421 68.5051 142.462C74.438 139.503 80.417 136.622 86.5209 133.965C87.4421 133.558 88.4812 133.506 89.4388 133.818C90.3964 134.13 91.2048 134.785 91.7089 135.657C92.213 136.528 92.3772 137.556 92.1699 138.541C91.9626 139.526 91.3984 140.4 90.5858 140.995L90.6121 140.982Z" fill="#020D18"/>
<path d="M33.1837 130.289C32.8548 130.822 32.4799 131.466 32.1247 132.071C31.7695 132.676 31.4209 133.308 31.092 133.946C30.4343 135.202 29.7765 136.477 29.1187 137.773C28.461 139.068 27.9282 140.403 27.3889 141.719C27.1258 142.376 26.8495 143.034 26.6061 143.692L26.2378 144.698C26.1654 144.888 26.1523 144.967 26.1062 145.105C26.0602 145.244 26.0405 145.375 26.001 145.507C25.7443 146.806 25.6143 148.128 25.6129 149.452C25.58 150.866 25.6129 152.306 25.6919 153.76C25.7708 155.213 25.8497 156.673 25.9813 158.133C26.1128 159.593 26.2444 161.079 26.3825 162.526L23.8436 163.045C23.3963 161.579 23.0477 160.119 22.6991 158.639C22.3505 157.16 22.0874 155.673 21.8308 154.161C21.5743 152.648 21.4033 151.129 21.2915 149.558C21.1547 147.912 21.1966 146.256 21.4165 144.619C21.4559 144.389 21.4888 144.172 21.548 143.961C21.6072 143.751 21.6664 143.455 21.719 143.304L22.0413 142.186C22.2518 141.442 22.4952 140.706 22.7451 139.976C23.2516 138.51 23.8041 137.069 24.4224 135.649C25.0407 134.228 25.6984 132.841 26.3956 131.473C26.7574 130.815 27.1389 130.112 27.527 129.434C27.9151 128.757 28.3031 128.119 28.7899 127.402L33.1837 130.289Z" fill="#FFC3BD"/>
<path d="M30.3751 266.075C29.9312 266.061 29.4902 265.999 29.0596 265.891C29.0365 265.887 29.0153 265.876 28.9987 265.86C28.9822 265.843 28.9713 265.822 28.9675 265.799C28.9633 265.775 28.966 265.751 28.9754 265.729C28.9847 265.706 29.0002 265.687 29.0201 265.674C29.1977 265.555 30.75 264.555 31.3485 264.825C31.4151 264.855 31.4722 264.903 31.5138 264.964C31.5555 265.024 31.5802 265.094 31.5853 265.167C31.6162 265.284 31.6141 265.408 31.5793 265.524C31.5445 265.64 31.4783 265.744 31.388 265.825C31.0917 266.028 30.7318 266.117 30.3751 266.075ZM29.3687 265.72C30.2633 265.897 30.9342 265.865 31.1907 265.628C31.2471 265.574 31.2883 265.506 31.3102 265.431C31.3321 265.355 31.334 265.276 31.3157 265.2C31.3148 265.166 31.3045 265.134 31.2859 265.106C31.2673 265.078 31.2411 265.056 31.2104 265.042C30.9013 264.904 30.0002 265.338 29.3687 265.72Z" fill="#002692"/>
<path d="M29.053 265.897C29.0336 265.902 29.0131 265.902 28.9937 265.897C28.9748 265.887 28.9592 265.872 28.9487 265.853C28.9382 265.834 28.9333 265.813 28.9345 265.792C28.9345 265.732 28.9345 264.259 29.4938 263.766C29.5629 263.704 29.6444 263.657 29.7328 263.629C29.8213 263.601 29.9148 263.591 30.0071 263.602C30.1041 263.603 30.1977 263.638 30.272 263.7C30.3463 263.762 30.3969 263.848 30.415 263.944C30.5335 264.516 29.5991 265.621 29.099 265.917C29.0823 265.914 29.0665 265.907 29.053 265.897ZM29.9281 263.819C29.8283 263.82 29.7324 263.857 29.6583 263.924C29.3348 264.4 29.1691 264.966 29.1846 265.542C29.6715 265.147 30.2505 264.319 30.1782 263.97C30.1782 263.911 30.1321 263.845 29.9808 263.825L29.9281 263.819Z" fill="#002692"/>
<path d="M53.6727 266.075C53.1307 266.067 52.591 266.005 52.0612 265.891C52.036 265.888 52.0125 265.877 51.9946 265.859C51.9766 265.841 51.9653 265.817 51.9625 265.792C51.9596 265.767 51.9643 265.742 51.976 265.719C51.9878 265.697 52.006 265.679 52.0283 265.667C52.2585 265.549 54.2975 264.509 54.9224 264.851C54.9825 264.882 55.0335 264.928 55.0704 264.984C55.1073 265.041 55.1289 265.106 55.1329 265.174C55.1472 265.282 55.1343 265.393 55.0953 265.495C55.0562 265.597 54.9923 265.688 54.9092 265.759C54.5455 266.003 54.1089 266.115 53.6727 266.075ZM52.4624 265.72C53.6003 265.911 54.4357 265.858 54.7514 265.582C54.8038 265.533 54.8437 265.472 54.8678 265.404C54.8918 265.337 54.8993 265.264 54.8895 265.193C54.8893 265.166 54.8818 265.14 54.868 265.117C54.8541 265.094 54.8343 265.075 54.8106 265.062C54.4685 264.877 53.2977 265.318 52.4624 265.72Z" fill="#002692"/>
<path d="M52.0809 265.897C52.0705 265.901 52.0593 265.903 52.048 265.903C52.0367 265.903 52.0255 265.901 52.0151 265.897C51.9962 265.887 51.9808 265.872 51.9714 265.853C51.9619 265.834 51.9588 265.813 51.9624 265.792C51.9624 265.732 52.0875 264.351 52.7257 263.819C52.9091 263.665 53.1453 263.59 53.3838 263.608C53.7193 263.641 53.8115 263.812 53.8378 263.95C53.9299 264.529 52.7257 265.634 52.1138 265.923L52.0809 265.897ZM53.3048 263.819C53.1502 263.82 53.0011 263.876 52.8837 263.977C52.5062 264.422 52.2763 264.973 52.2257 265.555C52.8442 265.18 53.6667 264.312 53.6075 263.963C53.6075 263.963 53.6075 263.845 53.3706 263.825L53.3048 263.819Z" fill="#002692"/>
<path d="M40.9714 110.541C41.3727 113.612 42.2869 119.84 40.0637 121.721C40.0637 121.721 40.7215 124.851 46.3255 125.213C52.5216 125.614 49.4828 122.332 49.4828 122.332C46.1545 121.306 46.4045 118.801 47.1477 116.486L40.9714 110.541Z" fill="#FFC3BD"/>
<path d="M52.4625 104.3C52.423 104.299 52.3844 104.288 52.3507 104.267C52.322 104.253 52.2966 104.233 52.276 104.208C52.2553 104.183 52.2399 104.155 52.2307 104.124C52.2215 104.093 52.2186 104.061 52.2222 104.029C52.2259 103.997 52.236 103.966 52.252 103.939C52.4229 103.591 52.6756 103.289 52.9884 103.06C53.3012 102.831 53.6649 102.681 54.0484 102.623C54.1072 102.626 54.1633 102.649 54.2061 102.69C54.249 102.73 54.2757 102.785 54.2813 102.843C54.2869 102.902 54.2711 102.961 54.2367 103.008C54.2024 103.056 54.1518 103.09 54.0944 103.103C53.7944 103.156 53.5105 103.277 53.2651 103.457C53.0197 103.637 52.8193 103.872 52.6797 104.142C52.661 104.186 52.631 104.223 52.5928 104.251C52.5546 104.279 52.5096 104.296 52.4625 104.3Z" fill="#263238"/>
<path d="M54.2317 106.997C54.685 107.9 55.2607 108.736 55.9425 109.482C55.7471 109.652 55.5168 109.777 55.2679 109.849C55.019 109.92 54.7574 109.937 54.5015 109.897L54.2317 106.997Z" fill="#ED847E"/>
<path d="M53.7976 106.326C53.837 106.74 54.0871 107.049 54.3503 107.023C54.6135 106.996 54.8109 106.648 54.7714 106.234C54.7319 105.819 54.4819 105.51 54.2121 105.537C53.9423 105.563 53.7581 105.918 53.7976 106.326Z" fill="#263238"/>
<path d="M54.1265 105.57L55.0879 105.195C55.0879 105.195 54.6269 106.011 54.1265 105.57Z" fill="#263238"/>
<path d="M46.4507 265.772H51.5746L51.9166 253.922H46.7927L46.4507 265.772Z" fill="#FFC3BD"/>
<path d="M23.1858 265.772H28.3097L29.9541 253.922H24.8368L23.1858 265.772Z" fill="#FFC3BD"/>
<path d="M28.6254 265.18H22.8701C22.7714 265.179 22.6757 265.214 22.6007 265.278C22.5258 265.342 22.4766 265.431 22.4622 265.529L21.8045 270.079C21.7915 270.194 21.803 270.31 21.838 270.421C21.8731 270.531 21.931 270.632 22.008 270.719C22.0849 270.805 22.1792 270.874 22.2847 270.921C22.3902 270.969 22.5045 270.993 22.6201 270.993C24.5934 270.96 25.5931 270.842 28.1255 270.842C29.6778 270.842 31.9536 271 34.1045 271C36.2553 271 36.3671 268.876 35.4726 268.685C31.4603 267.824 30.8289 266.633 29.4739 265.496C29.2373 265.293 28.9367 265.182 28.6254 265.18Z" fill="#263238"/>
<path d="M51.7455 265.18H45.9967C45.8977 265.178 45.8013 265.212 45.726 265.276C45.6507 265.341 45.6019 265.43 45.5889 265.529L44.9312 270.079C44.9192 270.195 44.9316 270.311 44.9674 270.421C45.0033 270.531 45.0618 270.633 45.1393 270.719C45.2168 270.805 45.3114 270.874 45.4172 270.921C45.523 270.969 45.6375 270.993 45.7534 270.993C47.7266 270.961 48.7264 270.842 51.2522 270.842C52.8111 270.842 56.0275 271 58.1783 271C60.3292 271 60.441 268.876 59.5465 268.685C55.5342 267.824 53.9555 266.633 52.6006 265.496C52.3623 265.292 52.0591 265.18 51.7455 265.18Z" fill="#263238"/>
<path d="M51.9099 253.922L51.7389 260.031H46.615L46.7926 253.922H51.9099Z" fill="#CE6F64"/>
<path d="M24.8302 253.922H29.9541L29.1056 260.031H23.9817L24.8302 253.922Z" fill="#CE6F64"/>
<path d="M35.3675 131.078C34.3951 132.597 33.2688 134.012 32.0064 135.3L31.421 134.912L24.9355 130.605C24.9355 130.605 28.4743 122.714 31.1382 122.312C33.6837 121.905 35.5385 124.535 36.4002 127.35C36.7291 128.369 36.1831 129.75 35.3675 131.078Z" fill="#002692"/>
<path opacity="0.6" d="M35.3675 131.078C34.3951 132.597 33.2688 134.012 32.0064 135.3L31.421 134.912L24.9355 130.605C24.9355 130.605 28.4743 122.714 31.1382 122.312C33.6837 121.905 35.5385 124.535 36.4002 127.35C36.7291 128.369 36.1831 129.75 35.3675 131.078Z" fill="#FAFAFA"/>
<path d="M35.3674 131.078C34.395 132.597 33.2687 134.012 32.0063 135.3L31.4209 134.912C31.7103 132.545 32.6312 130.197 33.6836 129.454C34.3282 129.52 34.9004 130.204 35.3674 131.078Z" fill="#002692"/>
<path opacity="0.4" d="M35.3674 131.078C34.395 132.597 33.2687 134.012 32.0063 135.3L31.4209 134.912C31.7103 132.545 32.6312 130.197 33.6836 129.454C34.3282 129.52 34.9004 130.204 35.3674 131.078Z" fill="#FAFAFA"/>
<path d="M57.5533 135.018C57.2442 136.99 56.8429 139.312 56.3036 142.067C55.6458 145.592 54.725 149.821 53.5608 154.878L32.8086 153.562C33.7032 145.138 34.0518 139.93 31.1379 122.339C34.084 121.927 37.0562 121.732 40.0308 121.753C43.181 121.733 46.3287 121.937 49.4498 122.365C53.4752 123.023 58.0006 124.233 58.0006 124.233C58.0006 124.233 59.1582 124.686 57.5533 135.018Z" fill="#002692"/>
<path opacity="0.6" d="M57.5533 135.018C57.2442 136.99 56.8429 139.312 56.3036 142.067C55.6458 145.592 54.725 149.821 53.5608 154.878L32.8086 153.562C33.7032 145.138 34.0518 139.93 31.1379 122.339C34.084 121.927 37.0562 121.732 40.0308 121.753C43.181 121.733 46.3287 121.937 49.4498 122.365C53.4752 123.023 58.0006 124.233 58.0006 124.233C58.0006 124.233 59.1582 124.686 57.5533 135.018Z" fill="#FAFAFA"/>
<path d="M57.5534 135.018C57.2443 136.991 56.843 139.312 56.3037 142.067C55.1623 139.64 54.2144 137.127 53.4688 134.551H57.3232L57.5534 135.018Z" fill="#002692"/>
<path opacity="0.4" d="M57.5534 135.018C57.2443 136.991 56.843 139.312 56.3037 142.067C55.1623 139.64 54.2144 137.127 53.4688 134.551H57.3232L57.5534 135.018Z" fill="#FAFAFA"/>
<path d="M39.8402 106.22C40.6229 111.238 40.8532 113.382 43.6486 115.73C47.8517 119.268 53.8438 117.203 54.5739 112.047C55.2316 107.411 53.8372 99.9796 48.7002 98.4408C47.5702 98.0942 46.3703 98.0425 45.2147 98.2905C44.0591 98.5386 42.9862 99.0782 42.0981 99.858C41.21 100.638 40.5363 101.632 40.1411 102.745C39.7459 103.859 39.6423 105.055 39.8402 106.22Z" fill="#FFC3BD"/>
<path d="M48.0753 154.523C48.0753 154.523 47.7464 163.657 46.9571 175.178C46.2994 184.845 45.3062 196.183 43.9183 205.218L43.8788 205.468C41.386 221.462 30.3423 258.841 30.3423 258.841H23.3569C23.3569 258.841 29.1123 222.737 30.3752 206.889C33.5784 166.86 25.5538 162.329 32.8088 153.503L48.0753 154.523Z" fill="#002692"/>
<path opacity="0.3" d="M48.0753 154.523C48.0753 154.523 47.7464 163.657 46.9571 175.178C46.2994 184.845 45.3062 196.183 43.9183 205.218L43.8788 205.468C41.386 221.462 30.3423 258.841 30.3423 258.841H23.3569C23.3569 258.841 29.1123 222.737 30.3752 206.889C33.5784 166.86 25.5538 162.329 32.8088 153.503L48.0753 154.523Z" fill="#020D18"/>
<path d="M46.957 175.178C46.2992 184.845 45.306 196.183 43.9181 205.218C41.5568 193.48 37.6761 176.336 42.8855 165.104C44.1286 168.293 45.5757 171.897 46.957 175.178Z" fill="#002692"/>
<path opacity="0.4" d="M46.957 175.178C46.2992 184.845 45.306 196.183 43.9181 205.218C41.5568 193.48 37.6761 176.336 42.8855 165.104C44.1286 168.293 45.5757 171.897 46.957 175.178Z" fill="#020D18"/>
<path d="M53.5608 154.884C53.5608 154.884 59.4806 189.962 59.1254 205.573C58.7768 221.817 52.8241 258.841 52.8241 258.841H45.9045C45.9045 258.841 46.9964 222.757 46.3847 206.81C45.7269 189.422 38.3601 153.891 38.3601 153.891L53.5608 154.884Z" fill="#002692"/>
<path opacity="0.3" d="M53.5608 154.884C53.5608 154.884 59.4806 189.962 59.1254 205.573C58.7768 221.817 52.8241 258.841 52.8241 258.841H45.9045C45.9045 258.841 46.9964 222.757 46.3847 206.81C45.7269 189.422 38.3601 153.891 38.3601 153.891L53.5608 154.884Z" fill="#020D18"/>
<path d="M44.7207 259.169H54.0016L54.7252 256.059L44.3918 256.131L44.7207 259.169Z" fill="#263238"/>
<path d="M22.344 259.169H31.6249L32.3484 256.059L22.4098 256.131L22.344 259.169Z" fill="#263238"/>
<path d="M32.5719 152.306L31.5195 154.108C31.434 154.246 31.5984 154.404 31.8352 154.417L53.6003 155.831C53.7844 155.831 53.9489 155.765 53.9686 155.647L54.2778 153.799C54.2778 153.674 54.1396 153.556 53.9357 153.543L32.8876 152.175C32.8286 152.172 32.7696 152.183 32.715 152.205C32.6605 152.228 32.6116 152.262 32.5719 152.306Z" fill="#263238"/>
<path d="M35.2427 154.832L34.6834 154.792C34.5715 154.792 34.486 154.72 34.4991 154.654L34.9203 152.254C34.9203 152.188 35.0321 152.136 35.144 152.142L35.7099 152.175C35.8217 152.175 35.9007 152.247 35.8941 152.32L35.473 154.713C35.4598 154.786 35.3546 154.838 35.2427 154.832Z" fill="#002692"/>
<path opacity="0.3" d="M35.2427 154.832L34.6834 154.792C34.5715 154.792 34.486 154.72 34.4991 154.654L34.9203 152.254C34.9203 152.188 35.0321 152.136 35.144 152.142L35.7099 152.175C35.8217 152.175 35.9007 152.247 35.8941 152.32L35.473 154.713C35.4598 154.786 35.3546 154.838 35.2427 154.832Z" fill="#020D18"/>
<path d="M48.8648 155.713L48.3055 155.68C48.1936 155.68 48.1081 155.608 48.1212 155.535L48.5423 153.142C48.5423 153.069 48.6542 153.023 48.7727 153.03L49.332 153.063C49.4438 153.063 49.5294 153.135 49.5162 153.207L49.0951 155.601C49.1017 155.673 48.9964 155.719 48.8648 155.713Z" fill="#002692"/>
<path opacity="0.3" d="M48.8648 155.713L48.3055 155.68C48.1936 155.68 48.1081 155.608 48.1212 155.535L48.5423 153.142C48.5423 153.069 48.6542 153.023 48.7727 153.03L49.332 153.063C49.4438 153.063 49.5294 153.135 49.5162 153.207L49.0951 155.601C49.1017 155.673 48.9964 155.719 48.8648 155.713Z" fill="#020D18"/>
<path d="M59.1782 129.494C59.9675 132.124 60.7173 134.787 61.4474 137.444L63.6509 145.395L63.9272 146.381L63.9995 146.625L64.0324 146.75V146.815C64.056 146.902 64.0845 146.988 64.1179 147.072C64.2794 147.471 64.5012 147.844 64.7757 148.177C65.561 149.005 66.4709 149.706 67.4725 150.255C69.767 151.496 72.1941 152.476 74.7077 153.174L74.3263 155.739C71.3768 155.587 68.4714 154.959 65.7228 153.878C64.202 153.282 62.8007 152.418 61.5856 151.327C60.8896 150.681 60.3109 149.92 59.8754 149.077C59.7578 148.85 59.6546 148.615 59.5663 148.374L59.4939 148.196L59.4479 148.071L59.3624 147.828L59.0138 146.835C58.0929 144.205 57.2378 141.574 56.4288 138.904C55.6197 136.234 54.8239 133.604 54.1003 130.921L59.1782 129.494Z" fill="#FFC3BD"/>
<path d="M58.0006 124.206C60.6316 125.068 63.3942 133.67 63.3942 133.67L53.8962 137.76C53.8962 137.76 49.9497 128.106 51.6993 125.923C53.449 123.74 54.9815 123.22 58.0006 124.206Z" fill="#002692"/>
<path opacity="0.6" d="M58.0006 124.206C60.6316 125.068 63.3942 133.67 63.3942 133.67L53.8962 137.76C53.8962 137.76 49.9497 128.106 51.6993 125.923C53.449 123.74 54.9815 123.22 58.0006 124.206Z" fill="#FAFAFA"/>
<path d="M52.9228 98.1515C51.2455 96.08 38.2877 94.6004 37.5971 100.243C32.9928 103.465 37.3603 111.791 38.0181 113.908C34.8411 114.789 24.6065 118.288 32.0983 125.088C39.5901 131.887 50.8245 130.73 53.0214 123.693C54.5606 118.774 49.6735 110.541 49.7787 107.661C49.8839 104.78 55.7971 101.67 52.9228 98.1515Z" fill="#263238"/>
<path d="M38.9258 114.947C38.9018 114.948 38.8779 114.943 38.8562 114.933C38.8344 114.922 38.8155 114.907 38.8008 114.888C37.6103 113.441 33.4665 105.839 34.9201 102.222C35.1455 101.661 35.5277 101.177 36.0211 100.827C36.5145 100.477 37.0981 100.276 37.7024 100.249C37.7237 100.247 37.7453 100.248 37.7659 100.254C37.7865 100.26 37.8057 100.27 37.8223 100.284C37.8389 100.297 37.8526 100.314 37.8625 100.333C37.8724 100.352 37.8784 100.373 37.88 100.394C37.8857 100.437 37.8744 100.48 37.8485 100.514C37.8227 100.549 37.7844 100.572 37.7419 100.578C37.1986 100.598 36.6725 100.774 36.2259 101.084C35.7794 101.394 35.4312 101.825 35.2227 102.327C33.8216 105.826 37.8866 113.25 39.0508 114.671C39.0716 114.694 39.085 114.723 39.0895 114.754C39.094 114.784 39.0892 114.816 39.0759 114.844C39.0625 114.872 39.0412 114.896 39.0145 114.912C38.9878 114.928 38.9569 114.935 38.9258 114.934V114.947Z" fill="#263238"/>
<path d="M48.7526 107.351C48.8994 108.312 49.3623 109.196 50.0681 109.864C51.0021 110.758 51.8835 110.146 51.969 109.009C52.048 107.989 51.6533 106.299 50.5483 105.826C49.4432 105.352 48.6145 106.214 48.7526 107.351Z" fill="#FFC3BD"/>
<path d="M71.4846 152.464L75.2206 151.195L74.6352 155.686C74.6352 155.686 73.1618 156.344 71.2543 154.687L69.4324 153.523L70.8663 152.74C71.0629 152.628 71.27 152.536 71.4846 152.464Z" fill="#FFC3BD"/>
<path d="M77.8319 151.182L76.6875 155.108L74.6353 155.68L75.2207 151.195L77.8319 151.182Z" fill="#FFC3BD"/>
<path d="M70.6007 32.8001C71.6608 30.5082 73.4624 28.5256 76.0055 26.8522C78.5486 25.1788 81.5879 24.2167 85.1234 23.9659C88.6489 23.7194 92.2934 24.4586 96.0566 26.1833C99.5559 27.7878 102.346 29.8493 104.426 32.3677C106.411 34.6704 107.721 37.4755 108.214 40.4746C108.656 43.2615 108.256 46.1166 107.066 48.675C106.249 50.5665 104.97 52.2221 103.345 53.489C101.888 54.6065 100.27 55.4951 98.5444 56.1239C96.8855 56.7221 93.9655 57.6646 89.7846 58.9514C88.8071 59.2559 87.8466 59.6119 86.9069 60.0181C86.2621 60.2935 85.6531 60.6457 85.0929 61.0672C84.6519 61.4094 84.2467 61.7953 83.8836 62.2192C83.5339 62.6313 82.9572 63.3627 82.1492 64.4238C80.5385 66.7201 78.5284 67.3153 76.119 66.2094C75.5299 65.9563 74.9968 65.589 74.5505 65.1287C74.1043 64.6683 73.7537 64.1241 73.5191 63.5275C73.0418 62.3158 73.1733 60.9024 73.9136 59.2874C75.3548 55.8444 78.1038 53.1139 81.557 51.6958C83.5335 50.9133 85.5483 50.2311 87.5937 49.6517C89.7555 49.0067 91.3394 48.5028 92.3406 48.129C93.3364 47.7618 94.2757 47.2568 95.131 46.6287C95.9865 46.0071 96.6645 45.1728 97.0978 44.2083C97.5345 43.2939 97.7687 42.2959 97.7843 41.2827C97.7999 40.2695 97.5966 39.2648 97.1882 38.3374C96.3576 36.3478 94.8168 34.8332 92.5656 33.7936C89.9111 32.5769 87.6509 32.3508 85.7851 33.1154C83.9193 33.88 81.9497 35.3685 79.8764 37.581C77.8091 39.929 75.6318 40.5823 73.3445 39.5408C72.7009 39.2613 72.1228 38.8506 71.6471 38.3349C71.1714 37.8193 70.8086 37.21 70.582 36.5461C70.3365 35.9517 70.2118 35.3143 70.215 34.6712C70.2182 34.0281 70.3493 33.3921 70.6007 32.8001ZM70.0498 80.5083C68.6232 79.8775 67.4837 78.7367 66.8546 77.3096C66.1958 75.8565 66.2579 74.2735 67.0409 72.5606C67.3569 71.8415 67.8187 71.1957 68.3971 70.6642C68.9755 70.1326 69.6579 69.7268 70.4012 69.4724C71.1476 69.2 71.9413 69.0808 72.7348 69.1218C73.5283 69.1629 74.3055 69.3634 75.0198 69.7114C75.7357 70.0264 76.3809 70.4821 76.9172 71.0513C77.4535 71.6206 77.87 72.2918 78.1418 73.025C78.4136 73.7583 78.5352 74.5387 78.4995 75.3199C78.4637 76.1011 78.2713 76.8671 77.9337 77.5726C77.1594 79.2582 76.0109 80.3337 74.4882 80.7992C73.0253 81.2678 71.439 81.1638 70.0498 80.5083Z" fill="#002692"/>
<g opacity="0.5">
<path opacity="0.5" d="M114.564 43.2315C114.546 41.7685 114.947 40.331 115.719 39.0881C116.614 37.5997 117.88 36.3687 119.393 35.5152C121.152 34.5137 123.137 33.9749 125.161 33.9492C127.038 33.8439 128.915 34.1655 130.65 34.8898C132.152 35.5159 133.454 36.5435 134.411 37.8598C135.302 39.092 135.804 40.5624 135.852 42.0819C135.915 43.1842 135.7 44.2847 135.225 45.2814C134.796 46.167 134.235 46.9819 133.561 47.698C132.912 48.3827 131.74 49.536 130.045 51.158C129.648 51.5366 129.273 51.9379 128.923 52.3599C128.68 52.6458 128.474 52.9607 128.308 53.2974C128.177 53.5664 128.076 53.8486 128.005 54.1392C127.937 54.4198 127.837 54.9087 127.699 55.5946C127.467 57.0883 126.648 57.8562 125.24 57.8982C124.897 57.9185 124.554 57.8708 124.229 57.7578C123.904 57.6448 123.605 57.4688 123.349 57.2398C123.071 56.9624 122.854 56.6301 122.711 56.2641C122.569 55.8981 122.504 55.5064 122.521 55.114C122.384 53.1197 123.044 51.1525 124.355 49.6437C125.111 48.7906 125.908 47.9758 126.745 47.2025C127.625 46.3788 128.262 45.7538 128.653 45.3366C129.041 44.9213 129.369 44.4537 129.627 43.9476C129.887 43.4436 130.011 42.8807 129.988 42.3142C129.977 41.7717 129.85 41.2379 129.614 40.7494C129.377 40.261 129.038 39.8294 128.619 39.4844C127.699 38.7245 126.52 38.3497 125.329 38.4383C123.766 38.4925 122.632 38.9256 121.927 39.7376C121.097 40.7824 120.499 41.9922 120.173 43.2862C119.745 44.9094 118.854 45.738 117.499 45.772C117.123 45.7917 116.748 45.7331 116.396 45.6C116.045 45.4669 115.724 45.2621 115.456 44.9987C115.198 44.7781 114.986 44.5082 114.832 44.2048C114.679 43.9014 114.588 43.5705 114.564 43.2315ZM125.769 66.2151C124.935 66.2553 124.115 65.9831 123.471 65.4518C123.136 65.1703 122.869 64.8184 122.687 64.4212C122.505 64.0241 122.413 63.5915 122.418 63.1547C122.394 62.7341 122.458 62.313 122.606 61.9185C122.754 61.524 122.982 61.1647 123.277 60.8636C123.57 60.5541 123.922 60.307 124.312 60.1371C124.703 59.9672 125.124 59.8781 125.55 59.8751C125.968 59.854 126.386 59.9172 126.78 60.0608C127.173 60.2045 127.534 60.4256 127.84 60.7112C128.147 60.9968 128.393 61.341 128.564 61.7235C128.735 62.1059 128.827 62.5187 128.835 62.9375C128.873 63.3737 128.813 63.8128 128.661 64.2234C128.509 64.634 128.268 65.006 127.955 65.3125C127.367 65.8786 126.586 66.2011 125.769 66.2151Z" fill="#002692"/>
</g>
<g opacity="0.1">
<path opacity="0.1" d="M138.547 30.2025C137.982 29.8209 137.538 29.2868 137.264 28.6624C136.93 27.9274 136.793 27.1176 136.868 26.3134C136.952 25.3785 137.273 24.4804 137.8 23.704C138.256 22.9564 138.875 22.3222 139.612 21.8492C140.25 21.4393 140.989 21.2125 141.747 21.1937C142.457 21.1756 143.156 21.3705 143.754 21.7533C144.194 22.0198 144.56 22.3929 144.817 22.8381C145.041 23.2366 145.204 23.6663 145.301 24.1129C145.393 24.5462 145.524 25.3002 145.695 26.3749C145.737 26.6267 145.793 26.8762 145.861 27.1223C145.942 27.4266 146.092 27.7083 146.299 27.9457C146.391 28.0466 146.553 28.2145 146.786 28.4478C146.904 28.5338 147.004 28.6423 147.08 28.767C147.155 28.8918 147.205 29.0303 147.227 29.1745C147.249 29.3188 147.242 29.4659 147.206 29.6074C147.171 29.7489 147.108 29.882 147.021 29.9989C146.853 30.2732 146.583 30.4698 146.271 30.5454C146.091 30.5798 145.906 30.576 145.727 30.5344C145.549 30.4928 145.381 30.4142 145.235 30.3038C144.813 30.0476 144.447 29.7092 144.159 29.3087C143.915 28.9587 143.735 28.5686 143.626 28.1562C143.498 27.6418 143.396 27.121 143.322 26.596C143.238 26.0376 143.167 25.6319 143.109 25.3663C143.049 25.1019 142.954 24.8467 142.827 24.6074C142.701 24.3748 142.517 24.1786 142.292 24.0376C142.082 23.8988 141.843 23.8072 141.594 23.7689C141.344 23.7306 141.09 23.7466 140.847 23.8157C140.307 23.968 139.849 24.3257 139.57 24.812C139.392 25.0438 139.265 25.3099 139.195 25.5935C139.126 25.8771 139.116 26.172 139.167 26.4595C139.349 27.0539 139.655 27.6028 140.066 28.0696C140.576 28.6634 140.656 29.2234 140.318 29.7539C140.227 29.9025 140.106 30.0305 139.962 30.1301C139.819 30.2296 139.657 30.2984 139.485 30.3322C139.328 30.3746 139.164 30.3849 139.003 30.3627C138.842 30.3404 138.687 30.2859 138.547 30.2025ZM150.322 31.9833C150.116 32.3121 149.795 32.5534 149.422 32.6612C149.224 32.7157 149.017 32.7251 148.815 32.6887C148.613 32.6522 148.421 32.5708 148.255 32.4505C148.087 32.3487 147.943 32.2133 147.831 32.0527C147.718 31.8922 147.64 31.71 147.602 31.5179C147.561 31.324 147.558 31.1237 147.595 30.9288C147.632 30.734 147.708 30.5486 147.818 30.3836C147.921 30.2174 148.056 30.0737 148.215 29.9612C148.374 29.8487 148.555 29.7696 148.746 29.7289C148.936 29.6847 149.134 29.6802 149.326 29.7157C149.518 29.7512 149.701 29.8258 149.863 29.935C150.04 30.0363 150.193 30.1753 150.31 30.342C150.427 30.5087 150.507 30.6991 150.543 30.8999C150.608 31.2759 150.529 31.6625 150.322 31.9833Z" fill="#002692"/>
</g>
</svg>
