<svg width="14" height="14" viewBox="0 0 14 14" fill="none" xmlns="http://www.w3.org/2000/svg">
<mask id="mask0" mask-type="alpha" maskUnits="userSpaceOnUse" x="0" y="0" width="14" height="14">
<path fill-rule="evenodd" clip-rule="evenodd" d="M0.333313 0.333374H13.6666V13.6667H0.333313V0.333374Z" fill="white"/>
</mask>
<g mask="url(#mask0)">
<path fill-rule="evenodd" clip-rule="evenodd" d="M1.44436 6.24914C1.44436 3.60253 3.58876 1.4491 6.22426 1.4491C8.85865 1.4491 11.003 3.60253 11.003 6.24914C11.003 8.89574 8.85865 11.0481 6.22426 11.0481C3.58876 11.0481 1.44436 8.89574 1.44436 6.24914ZM13.5041 12.7139L10.7675 9.96693C11.5964 8.94711 12.1142 7.66509 12.1142 6.24918C12.1142 2.98779 9.47201 0.333374 6.2243 0.333374C2.97548 0.333374 0.333313 2.98779 0.333313 6.24918C0.333313 9.51058 2.97548 12.1639 6.2243 12.1639C7.66205 12.1639 8.96424 11.6238 9.98755 10.7602L12.7175 13.5028C12.8264 13.6121 12.9686 13.6668 13.1108 13.6668C13.253 13.6668 13.3953 13.6121 13.5041 13.5028C13.7208 13.2852 13.7208 12.9326 13.5041 12.7139Z" fill="#333D47"/>
</g>
</svg>
