<svg width="20" height="20" viewBox="0 0 20 20" fill="none" xmlns="http://www.w3.org/2000/svg">
<path d="M10 11.7744C7.18767 11.7744 4.55626 13.1847 2.59106 15.7451L3.847 16.7087C5.50583 14.5478 7.69106 13.3575 10 13.3575C12.309 13.3575 14.4942 14.5478 16.1528 16.7087L17.4088 15.7451C15.4436 13.1847 12.8124 11.7744 10 11.7744Z" fill="#1F235B"/>
<path d="M10 0C4.48602 0 0 4.48602 0 10C0 15.514 4.48602 20 10 20C15.514 20 20 15.514 20 10C20 4.48602 15.514 0 10 0ZM10 18.4169C5.35883 18.4169 1.58312 14.6409 1.58312 10C1.58312 5.3591 5.35883 1.58312 10 1.58312C14.6409 1.58312 18.4169 5.35937 18.4169 10.0003C18.4169 14.6412 14.6409 18.4169 10 18.4169Z" fill="#1F235B"/>
<path d="M10 3.58842C7.73036 3.58842 5.88391 5.44675 5.88391 7.73089C5.88391 10.015 7.73036 11.8734 10 11.8734C12.2697 11.8734 14.1161 10.0151 14.1161 7.73092C14.1161 5.44678 12.2697 3.58842 10 3.58842ZM10 10.2903C8.60344 10.2903 7.46704 9.14225 7.46704 7.73089C7.46704 6.31952 8.60344 5.17151 10 5.17151C11.3966 5.17151 12.533 6.31979 12.533 7.73089C12.533 9.14198 11.3966 10.2903 10 10.2903Z" fill="#002692"/>
</svg>
