<svg width="10" height="12" viewBox="0 0 10 12" fill="none" xmlns="http://www.w3.org/2000/svg">
<path fill-rule="evenodd" clip-rule="evenodd" d="M4.99888 1.33337C4.63425 1.69612 3.96643 2.26667 2.96938 2.65464C2.33046 2.90328 1.74566 3.00337 1.29109 3.04061C1.08435 3.05742 0.926045 3.22679 0.920755 3.43058C0.884128 4.84353 1.00988 9.23373 4.99888 10.6643V10.6655C4.99929 10.6651 4.9997 10.6651 5.00011 10.6651C5.00051 10.6651 5.00092 10.6651 5.00133 10.6655V10.6667C5.00173 10.6663 5.00214 10.6663 5.00295 10.6659V10.6639C8.96551 9.24134 9.11405 4.89758 9.07986 3.45701C9.07498 3.2424 8.89999 3.07224 8.68186 3.07024C8.20002 3.06543 7.50412 2.98936 6.75003 2.65464C5.84007 2.25105 5.27724 1.66089 5.00295 1.33337" fill="white"/>
<path d="M4.99888 1.33337C4.63425 1.69612 3.96643 2.26667 2.96938 2.65464C2.33046 2.90328 1.74566 3.00337 1.29109 3.04061C1.08435 3.05742 0.926045 3.22679 0.920755 3.43058C0.884128 4.84353 1.00988 9.23373 4.99888 10.6643V10.6655C4.99929 10.6651 4.9997 10.6651 5.00011 10.6651C5.00051 10.6651 5.00092 10.6651 5.00133 10.6655V10.6667C5.00173 10.6663 5.00214 10.6663 5.00295 10.6659V10.6639C8.96551 9.24134 9.11405 4.89758 9.07986 3.45701C9.07498 3.2424 8.89999 3.07224 8.68186 3.07024C8.20002 3.06543 7.50412 2.98936 6.75003 2.65464C5.84007 2.25105 5.27724 1.66089 5.00295 1.33337" stroke="#333D47" stroke-linecap="round" stroke-linejoin="round"/>
<path fill-rule="evenodd" clip-rule="evenodd" d="M4.99893 1.33337C4.63429 1.69612 3.96647 2.26667 2.96942 2.65464C2.24545 2.93611 1.59065 3.0274 1.11614 3.05222C1.01195 3.05782 0.93097 3.1419 0.9269 3.2444C0.881321 4.40431 0.813766 9.16327 4.99893 10.6643V10.6655C4.99933 10.6651 4.99974 10.6651 5.00015 10.6651C5.00055 10.6651 5.00096 10.6651 5.00137 10.6655V10.6667C5.00177 10.6663 5.00218 10.6663 5.00299 10.6659V10.6639" fill="#E8ECFF"/>
<path d="M3.67749 5.99778L4.69489 6.99874L6.72968 4.99683" stroke="#6582FE" stroke-linecap="round" stroke-linejoin="round"/>
<path d="M4.99889 1.33337C4.63425 1.69612 3.96643 2.26667 2.96938 2.65464C2.33046 2.90328 1.74566 3.00337 1.29109 3.04061C1.08435 3.05742 0.926045 3.22679 0.920755 3.43058C0.884128 4.84353 1.00988 9.23373 4.99889 10.6643V10.6655C4.99929 10.6651 4.9997 10.6651 5.00011 10.6651C5.00051 10.6651 5.00092 10.6651 5.00133 10.6655V10.6667C5.00173 10.6663 5.00214 10.6663 5.00295 10.6659V10.6639C9.16858 9.16847 9.11934 4.44475 9.07376 3.25962C9.06969 3.14991 8.98016 3.06543 8.86865 3.06823C8.39129 3.08145 7.6083 3.0354 6.75003 2.65464C5.84007 2.25105 5.27724 1.66089 5.00295 1.33337" stroke="#333D47" stroke-linecap="round" stroke-linejoin="round"/>
</svg>
