<svg width="10" height="10" viewBox="0 0 10 10" fill="none" xmlns="http://www.w3.org/2000/svg">
<path fill-rule="evenodd" clip-rule="evenodd" d="M0.644409 8.78919H9.3549V1.86011H0.644409V8.78919Z" fill="white"/>
<path fill-rule="evenodd" clip-rule="evenodd" d="M0.644409 3.26021H9.3549V1.74438H0.644409V3.26021Z" fill="#6582FE"/>
<mask id="mask0" mask-type="alpha" maskUnits="userSpaceOnUse" x="0" y="0" width="10" height="10">
<path fill-rule="evenodd" clip-rule="evenodd" d="M0.333313 0.916748H9.66665V9.08342H0.333313V0.916748Z" fill="white"/>
</mask>
<g mask="url(#mask0)">
<path fill-rule="evenodd" clip-rule="evenodd" d="M9.04442 8.49568H0.955525V2.15435H2.16699V2.50936C2.16699 2.67216 2.30637 2.80323 2.4781 2.80323C2.65046 2.80323 2.78921 2.67216 2.78921 2.50936V2.15435H6.75215V2.50936C6.75215 2.67216 6.89153 2.80323 7.06326 2.80323C7.23499 2.80323 7.37437 2.67216 7.37437 2.50936V2.15435H9.04442V8.49568ZM9.35553 1.56656H7.37438V1.21038C7.37438 1.04816 7.235 0.916504 7.06327 0.916504C6.89153 0.916504 6.75216 1.04816 6.75216 1.21038V1.56656H2.78922V1.21038C2.78922 1.04816 2.65047 0.916504 2.47811 0.916504C2.30638 0.916504 2.167 1.04816 2.167 1.21038V1.56656H0.644424C0.472691 1.56656 0.333313 1.69822 0.333313 1.86044V8.78953C0.333313 8.95175 0.472691 9.08341 0.644424 9.08341H9.35553C9.52727 9.08341 9.66665 8.95175 9.66665 8.78953V1.86044C9.66665 1.69822 9.52727 1.56656 9.35553 1.56656Z" fill="#333D47"/>
</g>
<path fill-rule="evenodd" clip-rule="evenodd" d="M6.80129 6.87204H7.66929V6.16026H6.80129V6.87204ZM2.33059 6.87204H3.19859V6.16026H2.33059V6.87204ZM2.33059 5.57253H3.19859V4.86076H2.33059V5.57253ZM5.3023 5.57253H6.17901V4.86076H5.3023V5.57253ZM5.3023 6.87204H6.17901V6.16026H5.3023V6.87204ZM3.82082 5.57253H4.67949V4.86076H3.82082V5.57253ZM3.82146 6.87204H4.68013V6.16026H3.82146V6.87204ZM6.80129 5.57253H7.66929V4.86076H6.80129V5.57253ZM2.01949 4.27295C1.84775 4.27295 1.70837 4.40461 1.70837 4.56683V7.1659C1.70837 7.32812 1.84775 7.45978 2.01949 7.45978H7.98037C8.15211 7.45978 8.29149 7.32812 8.29149 7.1659V4.56683C8.29149 4.40461 8.15211 4.27295 7.98037 4.27295H2.01949Z" fill="#333D47"/>
</svg>
