<svg width="44" height="44" viewBox="0 0 44 44" fill="none" xmlns="http://www.w3.org/2000/svg">
<path d="M5.5 7.33337V1.83337H9.16667V7.33337H14.6667V11H9.16667V16.5H5.5V11H0V7.33337H5.5ZM11 18.3334V12.8334H16.5V7.33337H29.3333L32.6883 11H38.5C40.5167 11 42.1667 12.65 42.1667 14.6667V36.6667C42.1667 38.6834 40.5167 40.3334 38.5 40.3334H9.16667C7.15 40.3334 5.5 38.6834 5.5 36.6667V18.3334H11ZM23.8333 34.8334C28.8933 34.8334 33 30.7267 33 25.6667C33 20.6067 28.8933 16.5 23.8333 16.5C18.7733 16.5 14.6667 20.6067 14.6667 25.6667C14.6667 30.7267 18.7733 34.8334 23.8333 34.8334ZM17.9667 25.6667C17.9667 28.9117 20.5883 31.5334 23.8333 31.5334C27.0783 31.5334 29.7 28.9117 29.7 25.6667C29.7 22.4217 27.0783 19.8 23.8333 19.8C20.5883 19.8 17.9667 22.4217 17.9667 25.6667Z" fill="#353D46"/>
</svg>
