<svg width="16" height="14" viewBox="0 0 16 14" fill="none" xmlns="http://www.w3.org/2000/svg">
<path fill-rule="evenodd" clip-rule="evenodd" d="M15.3846 9.60156C15.0449 9.60156 14.7692 9.87335 14.7692 10.2082V12.7866H1.23077V10.2082C1.23077 9.87335 0.955077 9.60156 0.615385 9.60156C0.275692 9.60156 0 9.87335 0 10.2082V13.3933C0 13.7281 0.275692 13.9999 0.615385 13.9999H15.3846C15.7243 13.9999 16 13.7281 16 13.3933V10.2082C16 9.87335 15.7243 9.60156 15.3846 9.60156Z" fill="#1637CC"/>
<path fill-rule="evenodd" clip-rule="evenodd" d="M11.6923 5.55342C11.5348 5.55342 11.3772 5.61287 11.2566 5.73057L8.6154 8.33562L8.6154 0.606612C8.6154 0.270515 8.33971 -5.91278e-05 8.00001 -5.91278e-05C7.66032 -5.91278e-05 7.38463 0.270515 7.38463 0.606612L7.38463 8.33562L4.7434 5.73057C4.62278 5.61287 4.46524 5.55342 4.30771 5.55342C4.15017 5.55342 3.99263 5.61287 3.87201 5.73057C3.63201 5.96838 3.63201 6.3518 3.87201 6.58962L7.56432 10.2297C7.80555 10.4663 8.19448 10.4663 8.43571 10.2297L12.128 6.58962C12.368 6.3518 12.368 5.96838 12.128 5.73057C12.0074 5.61287 11.8499 5.55342 11.6923 5.55342Z" fill="#353D46"/>
</svg>
