<svg width="20" height="20" viewBox="0 0 20 20" fill="none" xmlns="http://www.w3.org/2000/svg">
<path opacity="0.3" d="M11.7167 7.51666L4.16675 15.0667V15.8333H4.93341L12.4834 8.28333L11.7167 7.51666Z" fill="white"/>
<path d="M15.3083 2.74167C15.1417 2.575 14.9333 2.5 14.7167 2.5C14.5 2.5 14.2917 2.58333 14.1333 2.74167L12.6083 4.26667L15.7333 7.39167L17.2583 5.86667C17.5833 5.54167 17.5833 5.01667 17.2583 4.69167L15.3083 2.74167ZM14.8417 8.28333L11.7167 5.15833L2.5 14.375V17.5H5.625L14.8417 8.28333ZM4.16667 15.8333V15.0667L11.7167 7.51667L12.4833 8.28333L4.93333 15.8333H4.16667Z" fill="white"/>
</svg>
