<svg width="16" height="16" viewBox="0 0 16 16" fill="none" xmlns="http://www.w3.org/2000/svg">
<path d="M9.33037 6.66957C10.0656 7.40481 11.2557 7.40496 11.9911 6.66957C12.1361 6.52454 12.252 6.36139 12.3397 6.18752C12.6108 6.83326 12.6424 7.28436 12.6965 7.52961H16C15.9367 7.22133 15.9274 5.75353 14.9499 4.04343L15.9252 3.06812L12.9319 0.0747558L11.9565 1.05009C10.2468 0.0727489 8.77971 0.0634358 8.47034 0V3.30343C8.70119 3.35438 9.17421 3.39248 9.81155 3.6599C8.67187 4.23766 8.42305 5.76237 9.33037 6.66957ZM11.3259 6.00439C10.9583 6.37199 10.3632 6.37212 9.99552 6.00439C9.62789 5.63685 9.62777 5.04172 9.99552 4.67402C10.3407 4.32891 10.9289 4.2819 11.3246 4.67794C11.7096 5.06323 11.6767 5.65363 11.3259 6.00439ZM9.41106 2.5337V1.08553C10.9629 1.39891 11.8908 2.1327 12.095 2.24202L12.9319 1.40518L14.5948 3.06816L13.7579 3.90502C13.8659 4.10665 14.6013 5.03789 14.9145 6.58892H13.4662C12.9576 4.60792 11.3935 3.04266 9.41106 2.5337Z" fill="#1637CC"/>
<path d="M6.6696 9.33025C5.76234 8.42296 4.23766 8.67175 3.65993 9.81143C3.38919 9.16628 3.35749 8.71524 3.30343 8.47021H0C0.0631222 8.77796 0.072498 10.2463 1.05009 11.9564L0.0747872 12.9317L3.06816 15.9251L4.04346 14.9498C5.75334 15.9272 7.22061 15.9365 7.52967 15.9999V12.6964C7.29879 12.6454 6.82579 12.6073 6.18849 12.3399C7.32814 11.7621 7.57683 10.2374 6.6696 9.33025ZM4.67409 9.99543C5.04169 9.6278 5.63673 9.62774 6.00445 9.99543C6.37205 10.3631 6.37212 10.9581 6.00445 11.3258L6.00442 11.3258C5.65667 11.6736 5.06875 11.7167 4.67079 11.3173C4.30106 10.9463 4.31282 10.3567 4.67409 9.99543ZM6.58892 13.4661V14.9143C5.03394 14.6003 4.10473 13.8648 3.90499 13.7578L3.06812 14.5947L1.40515 12.9317L2.24202 12.0949C2.13333 11.8918 1.39897 10.963 1.08553 9.41097H2.53373C3.03128 11.3489 4.56496 12.9465 6.58892 13.4661Z" fill="#353D46"/>
<path d="M12.6966 8.47021C12.6456 8.70132 12.6075 9.17441 12.3397 9.81231C11.7657 8.67404 10.2394 8.4213 9.33037 9.33022C8.42299 10.2375 8.6719 11.7622 9.81155 12.3399C9.16641 12.6106 8.71536 12.6423 8.47034 12.6964V15.9998C8.77933 15.9365 10.2466 15.9272 11.9565 14.9497L12.9318 15.9251L15.9252 12.9317L14.9499 11.9564C15.9274 10.2465 15.9366 8.77921 16 8.47021H12.6966ZM9.99559 9.99544C10.3632 9.6278 10.9583 9.62777 11.326 9.99544C11.6746 10.3441 11.713 10.9342 11.3207 11.3258C10.9423 11.7037 10.3531 11.6833 9.99559 11.3258V11.3258C9.62796 10.9582 9.62783 10.3631 9.99559 9.99544ZM14.5948 12.9317L12.9319 14.5947L12.095 13.7578C11.8875 13.8689 10.9621 14.6011 9.41106 14.9143V13.4661C11.3912 12.9577 12.957 11.3941 13.4662 9.4109H14.9145C14.6011 10.9627 13.8672 11.8907 13.7579 12.0948L14.5948 12.9317Z" fill="#353D46"/>
<path d="M3.06812 0.0757324L0.0747558 3.0691L1.05009 4.04441C0.0726234 5.75429 0.0634045 7.22156 0 7.53058H3.30343C3.35438 7.2997 3.39248 6.82671 3.65993 6.1894C4.23772 7.32911 5.76237 7.57781 6.6696 6.67058C7.5769 5.76329 7.32811 4.23863 6.18846 3.66088C6.83363 3.39017 7.28465 3.35847 7.52964 3.30441V0.000976562C7.2219 0.0640988 5.75353 0.0734746 4.04343 1.05107L3.06812 0.0757324ZM6.00461 6.00537C5.63695 6.37297 5.04191 6.37309 4.67421 6.00537C4.30658 5.63783 4.30645 5.0427 4.67421 4.675C5.01933 4.32988 5.60753 4.28288 6.00329 4.67892C6.38827 5.06421 6.35537 5.6546 6.00461 6.00537ZM6.58892 2.53468C4.65095 3.03222 3.05332 4.56591 2.53373 6.58987H1.08553C1.39954 5.03489 2.13509 4.10571 2.24202 3.90596L1.40518 3.0691L3.06816 1.40613L3.90502 2.24296C4.10812 2.13428 5.03686 1.39992 6.58895 1.08647V2.53468H6.58892Z" fill="#353D46"/>
</svg>
