<svg width="20" height="20" viewBox="0 0 20 20" fill="none" xmlns="http://www.w3.org/2000/svg">
<path d="M7.50004 8.33333C8.42052 8.33333 9.16671 7.58714 9.16671 6.66667C9.16671 5.74619 8.42052 5 7.50004 5C6.57957 5 5.83337 5.74619 5.83337 6.66667C5.83337 7.58714 6.57957 8.33333 7.50004 8.33333Z" fill="#96AAFF"/>
<path d="M7.5 12.5C5.25 12.5 2.66667 13.575 2.5 14.175V15H12.5V14.1667C12.3333 13.575 9.75 12.5 7.5 12.5Z" fill="#E8ECFF"/>
<path d="M13.8917 10.9417C15.0334 11.7167 15.8334 12.7667 15.8334 14.1667V16.6667H19.1667V14.1667C19.1667 12.35 16.1917 11.275 13.8917 10.9417Z" fill="#353D46"/>
<path d="M12.5001 10C14.3417 10 15.8334 8.50834 15.8334 6.66668C15.8334 4.82501 14.3417 3.33334 12.5001 3.33334C12.1084 3.33334 11.7417 3.41668 11.3917 3.53334C12.0834 4.39168 12.5001 5.48334 12.5001 6.66668C12.5001 7.85001 12.0834 8.94168 11.3917 9.80001C11.7417 9.91668 12.1084 10 12.5001 10Z" fill="#353D46"/>
<path d="M7.50008 10C9.34175 10 10.8334 8.50834 10.8334 6.66668C10.8334 4.82501 9.34175 3.33334 7.50008 3.33334C5.65841 3.33334 4.16675 4.82501 4.16675 6.66668C4.16675 8.50834 5.65841 10 7.50008 10ZM7.50008 5.00001C8.41675 5.00001 9.16675 5.75001 9.16675 6.66668C9.16675 7.58334 8.41675 8.33334 7.50008 8.33334C6.58342 8.33334 5.83341 7.58334 5.83341 6.66668C5.83341 5.75001 6.58342 5.00001 7.50008 5.00001Z" fill="#353D46"/>
<path d="M7.50004 10.8333C5.27504 10.8333 0.833374 11.95 0.833374 14.1667V16.6667H14.1667V14.1667C14.1667 11.95 9.72504 10.8333 7.50004 10.8333ZM12.5 15H2.50004V14.175C2.66671 13.575 5.25004 12.5 7.50004 12.5C9.75004 12.5 12.3334 13.575 12.5 14.1667V15Z" fill="#353D46"/>
</svg>
