<svg width="16" height="16" viewBox="0 0 16 16" fill="none" xmlns="http://www.w3.org/2000/svg">
<path d="M12.3334 6.80001C12.3334 8.51334 10.9334 10.66 8.22669 13.14L8.00002 13.34L7.77335 13.1333C5.06669 10.66 3.66669 8.51334 3.66669 6.80001C3.66669 4.24001 5.54669 2.33334 8.00002 2.33334C10.4534 2.33334 12.3334 4.23334 12.3334 6.80001Z" fill="#E8ECFF"/>
<path d="M8.00002 1.33334C10.8 1.33334 13.3334 3.48001 13.3334 6.80001C13.3334 9.01334 11.5534 11.6333 8.00002 14.6667C4.44669 11.6333 2.66669 9.01334 2.66669 6.80001C2.66669 3.48001 5.20002 1.33334 8.00002 1.33334ZM12 6.80001C12 4.38001 10.2334 2.66668 8.00002 2.66668C5.76669 2.66668 4.00002 4.38001 4.00002 6.80001C4.00002 8.36001 5.30002 10.4267 8.00002 12.8933C10.7 10.4267 12 8.36001 12 6.80001ZM8.00002 8.00001C7.26669 8.00001 6.66669 7.40001 6.66669 6.66668C6.66669 5.93334 7.26669 5.33334 8.00002 5.33334C8.73335 5.33334 9.33335 5.93334 9.33335 6.66668C9.33335 7.40001 8.73335 8.00001 8.00002 8.00001Z" fill="#353D46"/>
</svg>
