<svg width="16" height="13" viewBox="0 0 16 13" fill="none" xmlns="http://www.w3.org/2000/svg">
<path fill-rule="evenodd" clip-rule="evenodd" d="M13.5559 6.3281C12.5742 4.25603 11.8258 3.75184 11.2836 3.77258C9.54525 3.83942 8.86301 9.33249 7.30631 9.30887C6.2774 9.29331 5.96851 6.88415 4.4657 6.75335C3.61623 6.68017 2.79566 7.36932 2.19287 8.0314V11.0122H13.5559V6.3281Z" fill="#C9D4FF"/>
<path d="M2.19312 8.11673C2.79535 7.41317 3.61648 6.68137 4.46539 6.75974C5.96875 6.89803 6.27765 9.45759 7.30656 9.4743C8.8627 9.49965 9.54549 3.66315 11.2833 3.5917C11.8261 3.5698 12.5744 4.10569 13.5561 6.30683" stroke="#333D47" stroke-width="0.85" stroke-linecap="round" stroke-linejoin="round"/>
<path fill-rule="evenodd" clip-rule="evenodd" d="M5.04002 6.65704C5.04002 7.09439 4.69779 7.44934 4.27611 7.44934C3.85444 7.44934 3.51221 7.09439 3.51221 6.65704C3.51221 6.21912 3.85444 5.86475 4.27611 5.86475C4.69779 5.86475 5.04002 6.21912 5.04002 6.65704Z" fill="#1637CC"/>
<path fill-rule="evenodd" clip-rule="evenodd" d="M12.1419 3.58331C12.1419 4.02124 11.7997 4.37561 11.378 4.37561C10.9558 4.37561 10.6141 4.02124 10.6141 3.58331C10.6141 3.14597 10.9558 2.79102 11.378 2.79102C11.7997 2.79102 12.1419 3.14597 12.1419 3.58331Z" fill="#1637CC"/>
<path d="M2.07426 1.38428L1.95093 11.0734H14.2967" stroke="#333D47" stroke-linecap="round" stroke-linejoin="round"/>
<path d="M1.33337 1.76867L2.07394 1" stroke="#333D47" stroke-linecap="round" stroke-linejoin="round"/>
<path d="M2.81479 1.76867L2.07422 1" stroke="#333D47" stroke-linecap="round" stroke-linejoin="round"/>
<path d="M13.9261 10.2966L14.6667 11.0647" stroke="#333D47" stroke-linecap="round" stroke-linejoin="round"/>
<path d="M13.9261 11.8334L14.6667 11.0647" stroke="#333D47" stroke-linecap="round" stroke-linejoin="round"/>
</svg>
